<?xml version="1.0" standalone="no"?>
<!DOCTYPE svg PUBLIC "-//W3C//DTD SVG 1.1//EN" "http://www.w3.org/Graphics/SVG/1.1/DTD/svg11.dtd" >
<svg xmlns="http://www.w3.org/2000/svg" xmlns:xlink="http://www.w3.org/1999/xlink" version="1.1">
<metadata>
Created by FontForge 20201107 at Tue May  8 09:07:28 2007
 By Unknown
Copyright (c) 1991 Adobe Systems Incorporated.  All Rights Reserved.Impact is a trademark of Stephenson Blake (Holdings) Ltd.
</metadata>
<defs>
<font id="Impact" horiz-adv-x="463" >
  <font-face 
    font-family="Impact"
    font-weight="500"
    font-stretch="normal"
    units-per-em="1000"
    panose-1="0 0 0 0 0 0 0 0 0 0"
    ascent="800"
    descent="-200"
    x-height="586"
    cap-height="714"
    bbox="-94 -203 1006 936"
    underline-thickness="50"
    underline-position="-125"
    stemh="120"
    stemv="178"
    unicode-range="U+0020-FB02"
  />
<missing-glyph horiz-adv-x="240" 
 />
    <glyph glyph-name=".notdef" horiz-adv-x="240" 
 />
    <glyph glyph-name="space" unicode=" " horiz-adv-x="240" 
 />
    <glyph glyph-name="exclam" unicode="!" horiz-adv-x="260" 
d="M29 714h202l-27 -525h-144zM51 0v138h165v-138h-165z" />
    <glyph glyph-name="quotedbl" unicode="&#x22;" horiz-adv-x="333" 
d="M198 475v239h120v-239h-120zM15 475v239h120v-239h-120z" />
    <glyph glyph-name="numbersign" unicode="#" horiz-adv-x="480" 
d="M446 292v-96h-80l-27 -196h-100l29 196h-86l-26 -196h-100l27 196h-79v96h93l16 116h-79v96h92l27 196h100l-27 -196h84l26 196h100l-27 -196h67v-96h-80l-16 -116h66zM298 408h-86l-15 -116h83z" />
    <glyph glyph-name="dollar" unicode="$" 
d="M19 194v48h172v-105c0 -18 10 -34 35 -34c22 0 34 16 34 34v48c0 134 -241 105 -241 317c0 109 61 165 172 180v66h90v-66c113 -21 152 -66 152 -185v-16h-172v71c0 21 -14 35 -36 35c-21 0 -34 -14 -34 -33v-29c0 -116 253 -93 253 -300v-44c0 -105 -33 -174 -163 -186
v-81h-90v81c-111 9 -171 49 -172 199z" />
    <glyph glyph-name="percent" unicode="%" horiz-adv-x="722" 
d="M22 377v238c0 88 64 114 130 114s130 -26 130 -114v-238c0 -88 -64 -114 -130 -114s-130 26 -130 114zM130 627v-268c0 -15 3 -30 22 -30s22 15 22 30v268c0 15 -3 30 -22 30s-22 -15 -22 -30zM440 99v238c0 88 64 114 130 114s130 -26 130 -114v-238
c0 -88 -64 -114 -130 -114s-130 26 -130 114zM548 355v-268c0 -15 3 -30 22 -30s22 15 22 30v268c0 15 -3 30 -22 30s-22 -15 -22 -30zM184 -15l278 744h77l-279 -744h-76z" />
    <glyph glyph-name="ampersand" unicode="&#x26;" horiz-adv-x="519" 
d="M192 473c0 -29 21 -64 36 -78c21 19 31 47 31 76c0 30 -13 41 -33 41c-24 0 -34 -24 -34 -39zM9 157c0 64 37 134 107 144v2c-45 16 -74 77 -74 134c0 116 83 171 181 171c95 0 180 -54 180 -159c0 -61 -20 -84 -53 -129l60 -113l96 60v-125l-53 -28l66 -114h-169l-24 37
c-44 -35 -109 -52 -155 -52c-89 0 -162 63 -162 172zM272 118l-55 93c-19 -16 -36 -36 -36 -64c0 -25 14 -48 44 -48c19 0 32 8 47 19z" />
    <glyph glyph-name="quoteright" unicode="&#x2019;" horiz-adv-x="240" 
d="M51 570v144h138v-107c0 -65 -56 -132 -130 -132l-5 54c22 0 35 20 35 41h-38z" />
    <glyph glyph-name="parenleft" unicode="(" horiz-adv-x="278" 
d="M153 714h124c-49 -122 -71 -226 -71 -357s22 -235 71 -357h-124c-59 102 -112 237 -112 357s53 255 112 357z" />
    <glyph glyph-name="parenright" unicode=")" horiz-adv-x="278" 
d="M1 714h124c59 -102 112 -237 112 -357s-53 -255 -112 -357h-124c49 122 71 226 71 357s-22 235 -71 357z" />
    <glyph glyph-name="asterisk" unicode="*" horiz-adv-x="426" 
d="M117 487l-116 37l38 108l115 -37v119h120v-124l115 42l36 -108l-121 -41l77 -101l-93 -66l-77 103l-79 -103l-93 73z" />
    <glyph glyph-name="plus" unicode="+" horiz-adv-x="600" 
d="M240 0v193h-193v120h193v193h120v-193h193v-120h-193v-193h-120z" />
    <glyph glyph-name="comma" unicode="," horiz-adv-x="240" 
d="M51 0v144h138v-107c0 -65 -56 -132 -130 -132l-5 54c22 0 35 20 35 41h-38z" />
    <glyph glyph-name="hyphen" unicode="-" horiz-adv-x="315" 
d="M18 252v138h279v-138h-279z" />
    <glyph glyph-name="period" unicode="." horiz-adv-x="240" 
d="M51 0v144h138v-144h-138z" />
    <glyph glyph-name="slash" unicode="/" horiz-adv-x="259" 
d="M-16 -15l179 744h112l-175 -744h-116z" />
    <glyph glyph-name="zero" unicode="0" horiz-adv-x="480" 
d="M208 582v-434c0 -24 8 -49 32 -49c32 0 32 35 32 55v431c0 17 -12 36 -32 36c-22 0 -30 -15 -32 -39zM30 169v376c0 124 91 184 210 184s210 -60 210 -184v-376c0 -124 -91 -184 -210 -184s-210 60 -210 184z" />
    <glyph glyph-name="one" unicode="1" horiz-adv-x="370" 
d="M34 510v84c87 17 152 48 203 120h99v-714h-172v428c0 56 -5 82 -64 82h-66z" />
    <glyph glyph-name="two" unicode="2" horiz-adv-x="480" 
d="M31 0v103l201 338c20 34 45 77 45 122c0 23 -12 46 -39 46c-36 0 -42 -29 -42 -60v-81h-165v53c0 158 94 208 206 208c126 0 212 -61 212 -180c0 -53 -19 -104 -46 -149l-166 -280h202v-120h-408z" />
    <glyph glyph-name="three" unicode="3" horiz-adv-x="480" 
d="M438 559v-42c0 -51 -28 -112 -86 -113v-2c93 -13 98 -87 98 -171v-50c0 -146 -73 -196 -214 -196c-199 0 -206 110 -206 227v67h165v-125c0 -30 11 -61 37 -61c34 0 34 34 34 53v111c0 54 -16 73 -71 73h-41v102h34c47 0 78 3 78 65v96c0 18 -10 34 -34 34
c-26 0 -37 -18 -37 -51v-88h-165v37c0 161 64 204 200 204c92 0 208 -30 208 -170z" />
    <glyph glyph-name="four" unicode="4" horiz-adv-x="480" 
d="M148 250h89v362h-2zM458 250v-120h-56v-130h-172v130h-208v112l157 472h223v-464h56z" />
    <glyph glyph-name="five" unicode="5" horiz-adv-x="480" 
d="M41 714h389v-114h-225l-9 -145h2c10 45 65 70 113 70c110 0 139 -83 139 -181v-145c0 -136 -56 -214 -217 -214c-149 0 -203 71 -203 181v98h172v-138c0 -21 8 -39 38 -39s38 22 38 52v204c0 23 -6 50 -36 50c-19 0 -34 -11 -34 -27v-7h-178z" />
    <glyph glyph-name="six" unicode="6" horiz-adv-x="480" 
d="M278 132v166c0 23 -9 45 -38 45s-38 -22 -38 -45v-166c0 -23 9 -45 38 -45s38 22 38 45zM450 287v-87c0 -134 -71 -215 -205 -215c-124 0 -215 56 -215 226v287c0 185 91 231 213 231c123 0 199 -60 199 -177v-24h-172v54c0 33 -16 45 -32 45c-27 0 -36 -16 -36 -47v-167
h2c27 45 60 62 100 62c115 0 146 -93 146 -188z" />
    <glyph glyph-name="seven" unicode="7" horiz-adv-x="370" 
d="M16 588v126h338v-161l-102 -553h-194l124 588h-166z" />
    <glyph glyph-name="eight" unicode="8" horiz-adv-x="480" 
d="M30 177v70c0 63 14 149 92 154v2c-68 13 -83 72 -83 142c0 126 68 184 202 184c135 0 203 -58 203 -184c0 -70 -15 -129 -82 -142v-2c74 -5 88 -91 88 -154v-70c0 -102 -41 -192 -209 -192c-170 0 -211 90 -211 192zM208 581v-80c0 -22 4 -46 32 -46s32 24 32 46v80
c0 22 -4 46 -32 46s-32 -24 -32 -46zM208 281v-138c0 -24 1 -50 32 -50s32 26 32 50v151c0 24 -16 33 -29 33c-28 0 -35 -22 -35 -46z" />
    <glyph glyph-name="nine" unicode="9" horiz-adv-x="480" 
d="M202 582v-166c0 -23 9 -45 38 -45s38 22 38 45v166c0 23 -9 45 -38 45s-38 -22 -38 -45zM30 427v87c0 134 71 215 205 215c124 0 215 -56 215 -226v-287c0 -185 -91 -231 -213 -231c-123 0 -199 60 -199 177v24h172v-54c0 -33 16 -45 32 -45c27 0 36 16 36 47v167h-2
c-27 -45 -60 -62 -100 -62c-115 0 -146 93 -146 188z" />
    <glyph glyph-name="colon" unicode=":" horiz-adv-x="240" 
d="M51 214v144h138v-144h-138zM51 0v144h138v-144h-138z" />
    <glyph glyph-name="semicolon" unicode=";" horiz-adv-x="240" 
d="M51 0v144h138v-107c0 -65 -56 -132 -130 -132l-5 54c22 0 35 20 35 41h-38zM51 214v144h138v-144h-138z" />
    <glyph glyph-name="less" unicode="&#x3c;" horiz-adv-x="600" 
d="M47 205v96l506 213v-114l-350 -147l350 -147v-114z" />
    <glyph glyph-name="equal" unicode="=" horiz-adv-x="600" 
d="M47 305v120h506v-120h-506zM47 81v120h506v-120h-506z" />
    <glyph glyph-name="greater" unicode="&#x3e;" horiz-adv-x="600" 
d="M47 -8v114l350 147l-350 147v114l506 -213v-96z" />
    <glyph glyph-name="question" unicode="?" horiz-adv-x="480" 
d="M35 486v54c0 85 26 189 205 189c141 0 205 -65 205 -213v-106c0 -125 -51 -186 -132 -186c-59 0 -86 22 -105 51h-2v-76h-165v196h165v-5c0 -22 12 -33 35 -33c28 0 32 24 32 46v184c0 20 -7 40 -30 40c-34 0 -36 -26 -36 -51v-90h-172zM41 0v144h165v-144h-165z" />
    <glyph glyph-name="at" unicode="@" horiz-adv-x="800" 
d="M313 335c0 -46 27 -82 74 -82c60 0 100 48 100 105c0 47 -31 80 -77 80c-56 0 -97 -52 -97 -103zM517 488l9 48h94l-44 -238c-4 -17 -13 -55 7 -55c42 0 92 45 92 154c0 160 -109 242 -261 242c-166 0 -271 -117 -271 -283c0 -177 119 -281 288 -281c75 0 140 22 189 59
h99c-72 -96 -174 -149 -296 -149c-213 0 -388 154 -388 371c0 213 171 373 382 373c176 0 348 -117 348 -302c0 -228 -200 -288 -257 -288c-27 0 -51 17 -52 50h-2c-24 -27 -62 -50 -96 -50c-86 0 -165 82 -165 179c0 117 79 228 201 228c51 0 93 -17 123 -58z" />
    <glyph glyph-name="A" unicode="A" 
d="M198 252h64l-32 336h-2zM5 0l90 714h265l98 -714h-184l-9 126h-67l-9 -126h-184z" />
    <glyph glyph-name="B" unicode="B" 
d="M200 600v-164h20c26 0 43 18 43 44v76c0 26 -17 44 -43 44h-20zM200 328v-208h18c28 0 45 14 45 45v118c0 31 -17 45 -45 45h-18zM22 0v714h260c97 0 153 -30 153 -132v-79c0 -82 -45 -104 -120 -107l-2 -2c81 -3 134 -51 134 -137v-100c0 -114 -60 -157 -176 -157h-249z
" />
    <glyph glyph-name="C" unicode="C" 
d="M22 206v302c0 113 45 221 223 221c135 0 206 -75 206 -201v-101h-184v133c0 24 0 49 -33 49c-21 0 -28 -22 -28 -47v-410c0 -25 7 -47 28 -47c33 0 33 27 33 58v145h184v-118c0 -126 -79 -205 -210 -205c-185 0 -219 108 -219 221z" />
    <glyph glyph-name="D" unicode="D" horiz-adv-x="482" 
d="M22 0v714h232c125 0 206 -23 206 -183v-394c0 -107 -82 -137 -163 -137h-275zM206 594v-474h27c27 0 44 25 43 59v356c1 34 -16 59 -43 59h-27z" />
    <glyph glyph-name="E" unicode="E" horiz-adv-x="352" 
d="M22 0v714h311v-144h-127v-131h119v-138h-119v-157h137v-144h-321z" />
    <glyph glyph-name="F" unicode="F" horiz-adv-x="333" 
d="M22 0v714h310v-144h-126v-131h108v-138h-108v-301h-184z" />
    <glyph glyph-name="G" unicode="G" horiz-adv-x="482" 
d="M460 385v-385h-120l-14 50c-32 -44 -86 -65 -139 -65c-126 0 -165 102 -165 208v315c0 113 34 221 219 221c156 0 213 -59 213 -205v-73h-184v110c0 28 -4 48 -29 48c-31 0 -35 -28 -35 -53v-392c0 -31 8 -56 35 -56c33 0 35 27 35 55v120h-38v102h222z" />
    <glyph glyph-name="H" unicode="H" horiz-adv-x="482" 
d="M22 0v714h184v-259h70v259h184v-714h-184v299h-70v-299h-184z" />
    <glyph glyph-name="I" unicode="I" horiz-adv-x="222" 
d="M19 0v714h184v-714h-184z" />
    <glyph glyph-name="J" unicode="J" horiz-adv-x="296" 
d="M19 0v128c8 -1 16 -2 28 -2c36 0 46 21 46 57v531h184v-588c0 -44 -17 -126 -141 -126h-117z" />
    <glyph glyph-name="K" unicode="K" 
d="M22 0v714h178v-280h2l83 280h175l-108 -317l123 -397h-196l-77 314h-2v-314h-178z" />
    <glyph glyph-name="L" unicode="L" horiz-adv-x="333" 
d="M22 0v714h184v-576h122v-138h-306z" />
    <glyph glyph-name="M" unicode="M" horiz-adv-x="630" 
d="M22 0v714h245l48 -417h2l43 417h248v-714h-156v530h-2l-77 -530h-116l-77 530h-2v-530h-156z" />
    <glyph glyph-name="N" unicode="N" 
d="M22 0v714h156l105 -355h2v355h156v-714h-156l-104 399h-3v-399h-156z" />
    <glyph glyph-name="O" unicode="O" horiz-adv-x="482" 
d="M22 206v302c0 113 34 221 219 221s219 -108 219 -221v-302c0 -113 -34 -221 -219 -221s-219 108 -219 221zM206 562v-410c0 -25 7 -47 35 -47s35 22 35 47v410c0 25 -7 47 -35 47s-35 -22 -35 -47z" />
    <glyph glyph-name="P" unicode="P" horiz-adv-x="444" 
d="M22 0v714h241c106 0 169 -52 169 -163v-88c0 -103 -38 -172 -152 -172h-80v-291h-178zM200 594v-183h32c32 0 44 15 44 43v97c0 28 -12 43 -44 43h-32z" />
    <glyph glyph-name="Q" unicode="Q" horiz-adv-x="482" 
d="M22 206v302c0 113 34 221 219 221s219 -108 219 -221v-283c0 -117 -19 -161 -109 -181v-9c0 -22 8 -31 37 -31h82v-90h-169c-51 0 -101 14 -101 73v10h-14c-130 0 -164 114 -164 209zM206 562v-410c0 -25 7 -47 35 -47s35 22 35 47v410c0 25 -7 47 -35 47
s-35 -22 -35 -47z" />
    <glyph glyph-name="R" unicode="R" 
d="M22 0v714h203c118 0 209 -7 209 -145v-64c0 -78 -30 -121 -108 -126v-2c82 -5 115 -47 115 -127v-250h-172v271c0 34 -10 62 -48 62c-9 0 -14 -1 -21 -3v-330h-178zM200 600v-159h14c25 0 55 9 55 50v59c0 41 -30 50 -55 50h-14z" />
    <glyph glyph-name="S" unicode="S" horiz-adv-x="444" 
d="M15 171v89h172v-115c0 -23 5 -46 31 -46c33 0 34 37 34 65v30c0 131 -238 114 -238 318v40c0 130 79 177 201 177c172 0 203 -80 203 -157v-67h-165v59c0 45 -20 51 -36 51c-18 0 -31 -11 -31 -47v-31c0 -104 244 -103 244 -313v-56c0 -145 -87 -183 -215 -183
c-175 0 -200 84 -200 186z" />
    <glyph glyph-name="T" unicode="T" horiz-adv-x="406" 
d="M111 0v570h-109v144h402v-144h-109v-570h-184z" />
    <glyph glyph-name="U" unicode="U" horiz-adv-x="482" 
d="M22 196v518h184v-545c0 -42 10 -58 35 -58s35 16 35 58v545h184v-518c0 -120 -49 -211 -219 -211s-219 91 -219 211z" />
    <glyph glyph-name="V" unicode="V" 
d="M8 714h184l42 -576h2l47 576h172l-97 -714h-261z" />
    <glyph glyph-name="W" unicode="W" horiz-adv-x="741" 
d="M0 714h178l42 -494h2l51 494h193l52 -494h2l43 494h178l-84 -714h-233l-50 414h-2l-55 -414h-234z" />
    <glyph glyph-name="X" unicode="X" 
d="M2 0l80 388l-74 326h184l36 -235h2l45 235h165l-78 -307l99 -407h-178l-53 299h-2l-42 -299h-184z" />
    <glyph glyph-name="Y" unicode="Y" horiz-adv-x="444" 
d="M133 0v260l-133 454h172l53 -283h2l45 283h172l-133 -454v-260h-178z" />
    <glyph glyph-name="Z" unicode="Z" horiz-adv-x="352" 
d="M23 714h314v-127l-140 -449h149v-138h-340v112l152 464h-135v138z" />
    <glyph glyph-name="bracketleft" unicode="[" horiz-adv-x="296" 
d="M41 124v466c0 110 27 124 156 124h78v-93c-11 2 -20 3 -28 3c-30 0 -41 -8 -41 -25v-484c0 -17 11 -25 41 -25c8 0 17 1 28 3v-93h-78c-129 0 -156 14 -156 124z" />
    <glyph glyph-name="backslash" unicode="\" horiz-adv-x="259" 
d="M159 -15l-175 744h112l179 -744h-116z" />
    <glyph glyph-name="bracketright" unicode="]" horiz-adv-x="296" 
d="M90 115v484c0 17 -11 25 -41 25c-8 0 -17 -1 -28 -3v93h78c129 0 156 -14 156 -124v-466c0 -110 -27 -124 -156 -124h-78v93c11 -2 20 -3 28 -3c30 0 41 8 41 25z" />
    <glyph glyph-name="asciicircum" unicode="^" horiz-adv-x="600" 
d="M189 349h-116l175 365h104l175 -365h-117l-110 251z" />
    <glyph glyph-name="underscore" unicode="_" horiz-adv-x="500" 
d="M0 -125v50h500v-50h-500z" />
    <glyph glyph-name="quoteleft" unicode="&#x2018;" horiz-adv-x="240" 
d="M189 619v-144h-138v107c0 65 56 132 130 132l5 -54c-22 0 -35 -20 -35 -41h38z" />
    <glyph glyph-name="a" unicode="a" horiz-adv-x="444" 
d="M422 428v-428h-172v33c-26 -27 -67 -48 -112 -48c-76 0 -116 51 -116 125v79c0 67 4 91 113 131c100 38 109 48 109 82v74c0 17 -10 35 -30 35s-27 -17 -27 -35v-116h-165v62c0 129 62 179 196 179c126 0 204 -37 204 -173zM187 190v-61c0 -17 10 -33 26 -33
c22 0 31 17 31 30v153c-37 -23 -57 -48 -57 -89z" />
    <glyph glyph-name="b" unicode="b" 
d="M200 435v-284c0 -36 7 -52 34 -52c16 0 29 14 29 30v309c0 19 -11 37 -29 37c-23 0 -34 -18 -34 -40zM198 48l-8 -48h-168v714h178v-179h2c26 35 65 66 111 66c74 0 128 -53 128 -177v-283c0 -77 -28 -156 -123 -156c-55 0 -84 25 -120 63z" />
    <glyph glyph-name="c" unicode="c" horiz-adv-x="444" 
d="M22 179v228c0 152 112 194 210 194c119 0 198 -63 198 -189v-49h-172v96c0 16 -2 34 -29 34s-29 -18 -29 -34v-320c0 -30 5 -46 32 -46c24 0 32 16 32 48v101h172v-29c0 -183 -90 -228 -204 -228c-98 0 -210 42 -210 194z" />
    <glyph glyph-name="d" unicode="d" 
d="M200 440v-296c0 -21 5 -39 29 -39c29 0 34 16 34 39v296c0 22 -1 47 -31 47c-27 0 -32 -15 -32 -47zM22 121v339c0 91 36 141 128 141c42 0 86 -19 111 -55h2v168h178v-714h-187l9 35h-2c-31 -29 -72 -50 -119 -50c-85 0 -122 58 -120 136z" />
    <glyph glyph-name="e" unicode="e" horiz-adv-x="444" 
d="M22 179v228c0 152 112 194 210 194c86 0 198 -47 198 -194v-123h-230v-153c0 -23 5 -38 27 -38c25 0 31 19 31 41v105h172v-60c0 -152 -104 -194 -198 -194c-98 0 -210 42 -210 194zM200 455v-75h58v72c0 22 -6 41 -31 41c-22 0 -27 -15 -27 -38z" />
    <glyph glyph-name="f" unicode="f" horiz-adv-x="278" 
d="M5 490v96h37c4 104 38 128 148 128h79v-90h-27c-29 0 -52 -6 -56 -38h87v-96h-53v-490h-178v490h-37z" />
    <glyph glyph-name="g" unicode="g" 
d="M22 237v206c0 83 37 158 130 158c49 0 82 -16 115 -62h2v47h172v-475c0 -144 -88 -197 -223 -197c-98 0 -190 27 -190 144h172v-19c0 -13 7 -35 27 -35c21 0 36 4 36 41v81c-30 -30 -69 -46 -111 -46c-91 0 -130 75 -130 157zM263 240v195c0 21 -9 40 -33 40
c-27 0 -36 -19 -36 -40v-195c0 -21 9 -40 36 -40c24 0 33 19 33 40z" />
    <glyph glyph-name="h" unicode="h" 
d="M27 0v714h178v-173h2c16 38 70 60 108 60c75 0 121 -49 121 -156v-445h-178v439c0 18 -5 42 -28 42c-24 0 -25 -25 -25 -43v-438h-178z" />
    <glyph glyph-name="i" unicode="i" horiz-adv-x="222" 
d="M22 0v586h178v-586h-178zM22 624v90h178v-90h-178z" />
    <glyph glyph-name="j" unicode="j" horiz-adv-x="222" 
d="M22 40v546h178v-526c0 -121 -51 -146 -160 -146c-19 0 -36 2 -52 3v87c30 1 34 8 34 36zM22 624v90h178v-90h-178z" />
    <glyph glyph-name="k" unicode="k" horiz-adv-x="426" 
d="M22 0v714h178v-334h2l56 206h156l-71 -234l87 -352h-172l-56 247h-2v-247h-178z" />
    <glyph glyph-name="l" unicode="l" horiz-adv-x="222" 
d="M22 0v714h178v-714h-178z" />
    <glyph glyph-name="m" unicode="m" horiz-adv-x="686" 
d="M27 0v586h178v-45h2c8 19 26 34 46 44c20 11 43 16 62 16c56 0 90 -37 106 -67c31 35 67 67 117 67c75 0 121 -49 121 -156v-445h-178v439c0 18 -5 42 -28 42s-24 -25 -24 -43v-438h-172v439c0 18 -5 42 -27 42c-24 0 -25 -25 -25 -43v-438h-178z" />
    <glyph glyph-name="n" unicode="n" 
d="M27 0v586h178v-45h2c14 29 54 60 108 60c75 0 121 -49 121 -156v-445h-178v439c0 18 -5 42 -28 42c-24 0 -25 -25 -25 -43v-438h-178z" />
    <glyph glyph-name="o" unicode="o" horiz-adv-x="464" 
d="M22 179v228c0 152 112 194 210 194s210 -42 210 -194v-228c0 -152 -112 -194 -210 -194s-210 42 -210 194zM200 454v-310c0 -20 10 -39 32 -39s32 19 32 39v310c0 20 -10 39 -32 39s-32 -19 -32 -39z" />
    <glyph glyph-name="p" unicode="p" horiz-adv-x="464" 
d="M22 -86v672h178v-49c30 35 73 64 121 64c102 0 121 -81 121 -183v-231c0 -92 -9 -202 -126 -202c-48 0 -86 27 -114 65h-2v-136h-178zM200 446v-291c0 -28 10 -50 32 -50c24 0 32 19 32 50v291c0 25 -6 41 -32 41c-21 0 -32 -13 -32 -41z" />
    <glyph glyph-name="q" unicode="q" horiz-adv-x="464" 
d="M200 446v-291c0 -31 8 -51 32 -51c22 0 32 23 32 51v291c0 28 -11 41 -32 41c-26 0 -32 -16 -32 -41zM22 187v231c0 102 19 183 121 183c48 0 91 -29 121 -64v49h178v-672h-178v136h-2c-14 -19 -30 -35 -49 -47c-19 -11 -41 -18 -65 -18c-117 0 -126 110 -126 202z" />
    <glyph glyph-name="r" unicode="r" horiz-adv-x="315" 
d="M27 0v586h172v-75h2c17 56 70 86 110 90v-213c-10 1 -20 2 -30 2c-48 0 -76 -31 -76 -77v-313h-178z" />
    <glyph glyph-name="s" unicode="s" horiz-adv-x="426" 
d="M14 147v64h165v-80c0 -17 10 -32 29 -32c16 0 32 10 32 34v30c0 90 -221 72 -221 255c0 78 18 183 198 183c75 0 188 -29 188 -149v-55h-165v55c0 25 -10 35 -27 35s-29 -8 -29 -35v-23c0 -36 60 -56 137 -100c81 -47 91 -94 91 -174c0 -130 -84 -170 -211 -170
c-114 0 -187 37 -187 162z" />
    <glyph glyph-name="t" unicode="t" horiz-adv-x="278" 
d="M5 490v96h37v90h184v-90h47v-96h-47v-370c0 -17 6 -24 22 -24h25v-96h-98c-120 0 -133 47 -133 138v352h-37z" />
    <glyph glyph-name="u" unicode="u" 
d="M27 141v445h178v-439c0 -18 5 -42 28 -42c24 0 25 25 25 43v438h178v-586h-178v45h-2c-16 -38 -70 -60 -108 -60c-75 0 -121 49 -121 156z" />
    <glyph glyph-name="v" unicode="v" horiz-adv-x="407" 
d="M89 0l-87 586h165l46 -466h2l34 466h156l-83 -586h-233z" />
    <glyph glyph-name="w" unicode="w" horiz-adv-x="630" 
d="M2 586h165l33 -424h2l45 424h153l47 -424h2l27 424h152l-68 -586h-199l-35 317h-2l-43 -317h-203z" />
    <glyph glyph-name="x" unicode="x" horiz-adv-x="407" 
d="M2 0l83 306l-70 280h160l42 -214h2l37 214h149l-74 -278l74 -308h-149l-37 206h-2l-47 -206h-168z" />
    <glyph glyph-name="y" unicode="y" horiz-adv-x="407" 
d="M25 -86v84h41c28 2 35 11 35 36c0 5 -4 26 -6 38l-95 514h172l46 -451h2l31 451h156l-68 -502c-12 -88 -33 -170 -128 -170h-186z" />
    <glyph glyph-name="z" unicode="z" horiz-adv-x="333" 
d="M10 0v122l134 350h-122v114h294v-136l-128 -336h135v-114h-313z" />
    <glyph glyph-name="braceleft" unicode="{" horiz-adv-x="333" 
d="M8 308v96c25 0 84 12 84 61v111c0 69 62 138 133 138h100v-90h-43c-44 0 -58 -24 -58 -65v-105c-1 -62 -51 -93 -108 -96v-2c67 -7 107 -33 108 -106v-95c0 -41 14 -65 58 -65h43v-90h-100c-71 0 -133 69 -133 138v100c0 53 -53 70 -84 70z" />
    <glyph glyph-name="bar" unicode="|" horiz-adv-x="222" 
d="M51 -15v744h120v-744h-120z" />
    <glyph glyph-name="braceright" unicode="}" horiz-adv-x="333" 
d="M325 404v-96c-31 0 -84 -17 -84 -70v-100c0 -69 -62 -138 -133 -138h-100v90h43c44 0 58 24 58 65v95c1 73 41 99 108 106v2c-57 3 -107 34 -108 96v105c0 41 -14 65 -58 65h-43v90h100c71 0 133 -69 133 -138v-111c0 -49 59 -61 84 -61z" />
    <glyph glyph-name="asciitilde" unicode="~" horiz-adv-x="600" 
d="M495 345l36 -95c-30 -42 -63 -85 -125 -85c-40 0 -71 16 -104 33s-67 35 -113 35c-44 0 -68 -38 -84 -72l-36 95c22 42 58 85 125 85c74 0 162 -68 213 -68c40 0 65 38 88 72z" />
    <glyph glyph-name="exclamdown" unicode="&#xa1;" horiz-adv-x="260" 
d="M29 -128l27 525h144l31 -525h-202zM44 448v138h165v-138h-165z" />
    <glyph glyph-name="cent" unicode="&#xa2;" horiz-adv-x="444" 
d="M14 179v228c0 114 57 166 161 194v77h90v-77c52 -9 91 -30 117 -62c26 -31 39 -74 39 -127v-49h-172v97c0 16 -2 34 -30 34c-25 0 -27 -18 -27 -34v-321c0 -30 5 -46 31 -46c27 0 35 16 35 48v101h172v-29c0 -164 -73 -217 -165 -228v-64h-90v64c-73 11 -161 59 -161 194
z" />
    <glyph glyph-name="sterling" unicode="&#xa3;" horiz-adv-x="480" 
d="M22 -15v114c50 29 63 137 63 188h-63v114h49c-22 42 -42 96 -42 144c0 75 41 184 214 184c157 0 196 -75 196 -184v-60h-165v90c0 31 -15 52 -37 52c-26 0 -36 -24 -36 -48c0 -61 36 -116 38 -178h113v-114h-105c-4 -67 -22 -150 -91 -177v-2c15 2 29 3 44 3
c22 0 43 -6 69 -6c18 0 27 15 27 61v34h165v-53c0 -133 -68 -162 -139 -162c-57 0 -126 36 -185 36c-51 0 -92 -19 -115 -36z" />
    <glyph glyph-name="fraction" unicode="&#x2044;" horiz-adv-x="167" 
d="M-94 -15l278 744h77l-279 -744h-76z" />
    <glyph glyph-name="yen" unicode="&#xa5;" horiz-adv-x="480" 
d="M157 0v141h-138v102h140l-17 68h-123v102h93l-88 301h166l53 -283h2l45 283h166l-88 -301h93v-102h-123l-17 -68h140v-102h-138v-141h-166z" />
    <glyph glyph-name="florin" unicode="&#x192;" horiz-adv-x="480" 
d="M88 362v108h83c5 51 13 103 18 137c15 98 37 122 142 122h94v-108h-13c-37 0 -47 -4 -52 -49l-11 -102h67v-108h-82l-43 -337c-8 -66 -43 -111 -112 -111h-124v108h16c46 0 49 25 56 83l32 257h-71z" />
    <glyph glyph-name="section" unicode="&#xa7;" horiz-adv-x="481" 
d="M435 557h-165v27c0 24 -9 37 -28 37c-15 0 -31 -8 -31 -40c0 -81 236 -65 236 -244c0 -51 -14 -99 -54 -137c35 -35 40 -61 40 -110c0 -114 -81 -176 -199 -176c-131 0 -200 69 -200 166v18h165v-41c0 -18 9 -35 30 -35c18 0 32 11 32 30v31c0 72 -227 48 -227 237
c0 50 17 92 48 127c-25 35 -36 71 -36 113c0 121 86 169 202 169c99 0 187 -42 187 -151v-21zM174 322l135 -60c11 12 18 32 18 41c0 15 -9 26 -25 33l-132 58c-7 -13 -17 -28 -17 -43c0 -13 9 -24 21 -29z" />
    <glyph glyph-name="currency" unicode="&#xa4;" horiz-adv-x="480" 
d="M119 357c0 -73 51 -127 121 -127c69 0 120 54 120 127s-51 127 -120 127c-70 0 -121 -54 -121 -127zM0 178l50 50c-24 36 -39 82 -39 129s14 92 39 129l-50 50l61 61l50 -50c37 25 82 39 129 39s92 -15 128 -39l50 50l62 -61l-50 -50c25 -37 38 -82 38 -129
s-13 -92 -39 -128l51 -51l-62 -61l-51 51c-36 -26 -81 -40 -127 -40c-47 0 -92 14 -128 40l-51 -51z" />
    <glyph glyph-name="quotesingle" unicode="'" horiz-adv-x="240" 
d="M60 475v239h120v-239h-120z" />
    <glyph glyph-name="quotedblleft" unicode="&#x201c;" horiz-adv-x="333" 
d="M323 619v-144h-138v107c0 65 56 132 130 132l5 -54c-22 0 -35 -20 -35 -41h38zM148 619v-144h-138v107c0 65 56 132 130 132l5 -54c-22 0 -35 -20 -35 -41h38z" />
    <glyph glyph-name="guillemotleft" unicode="&#xab;" horiz-adv-x="407" 
d="M4 286l75 160h141l-72 -160l68 -152h-144zM187 286l75 160h141l-72 -160l67 -152h-144z" />
    <glyph glyph-name="guilsinglleft" unicode="&#x2039;" horiz-adv-x="240" 
d="M12 286l75 160h141l-72 -160l67 -152h-144z" />
    <glyph glyph-name="guilsinglright" unicode="&#x203a;" horiz-adv-x="240" 
d="M18 134l66 152l-72 160h141l75 -160l-66 -152h-144z" />
    <glyph glyph-name="fi" unicode="&#xfb01;" horiz-adv-x="500" 
d="M300 0v586h178v-586h-178zM300 624v90h178v-90h-178zM5 490v96h37c4 104 38 128 148 128h79v-90h-27c-29 0 -52 -6 -56 -38h87v-96h-53v-490h-178v490h-37z" />
    <glyph glyph-name="fl" unicode="&#xfb02;" horiz-adv-x="500" 
d="M300 0v714h178v-714h-178zM5 490v96h37c4 104 38 128 148 128h79v-90h-27c-29 0 -52 -6 -56 -38h87v-96h-53v-490h-178v490h-37z" />
    <glyph glyph-name="endash" unicode="&#x2013;" horiz-adv-x="500" 
d="M0 252v138h500v-138h-500z" />
    <glyph glyph-name="dagger" unicode="&#x2020;" horiz-adv-x="480" 
d="M47 410v144h105v160h178v-160h103v-144h-103v-410h-178v410h-105z" />
    <glyph glyph-name="daggerdbl" unicode="&#x2021;" horiz-adv-x="480" 
d="M47 156v144h105v164h-105v144h105v106h178v-106h103v-144h-103v-164h103v-144h-103v-156h-178v156h-105z" />
    <glyph glyph-name="periodcentered" unicode="&#xb7;" horiz-adv-x="240" 
d="M42 299c0 44 36 78 78 78s78 -34 78 -78s-36 -78 -78 -78s-78 34 -78 78z" />
    <glyph glyph-name="paragraph" unicode="&#xb6;" horiz-adv-x="620" 
d="M253 -71v436c-145 0 -223 64 -223 171c0 144 107 178 246 178h314v-785h-120v695h-97v-695h-120z" />
    <glyph glyph-name="bullet" unicode="&#x2022;" horiz-adv-x="500" 
d="M72 357c0 98 80 178 178 178s178 -80 178 -178s-80 -178 -178 -178s-178 80 -178 178z" />
    <glyph glyph-name="quotesinglbase" unicode="&#x201a;" horiz-adv-x="240" 
d="M51 0v144h138v-107c0 -65 -56 -132 -130 -132l-5 54c22 0 35 20 35 41h-38z" />
    <glyph glyph-name="quotedblbase" unicode="&#x201e;" horiz-adv-x="333" 
d="M10 0v144h138v-107c0 -65 -56 -132 -130 -132l-5 54c22 0 35 20 35 41h-38zM185 0v144h138v-107c0 -65 -56 -132 -130 -132l-5 54c22 0 35 20 35 41h-38z" />
    <glyph glyph-name="quotedblright" unicode="&#x201d;" horiz-adv-x="333" 
d="M10 570v144h138v-107c0 -65 -56 -132 -130 -132l-5 54c22 0 35 20 35 41h-38zM185 570v144h138v-107c0 -65 -56 -132 -130 -132l-5 54c22 0 35 20 35 41h-38z" />
    <glyph glyph-name="guillemotright" unicode="&#xbb;" horiz-adv-x="407" 
d="M259 286l-72 160h141l75 -160l-68 -152h-144zM76 286l-72 160h141l75 -160l-67 -152h-144z" />
    <glyph glyph-name="ellipsis" unicode="&#x2026;" horiz-adv-x="1000" 
d="M98 0v144h138v-144h-138zM431 0v144h138v-144h-138zM764 0v144h138v-144h-138z" />
    <glyph glyph-name="perthousand" unicode="&#x2030;" horiz-adv-x="1037" 
d="M746 99v238c0 88 64 114 130 114s130 -26 130 -114v-238c0 -88 -64 -114 -130 -114s-130 26 -130 114zM862 355v-268c0 -15 3 -30 22 -30s22 15 22 30v268c0 15 -3 30 -22 30s-22 -15 -22 -30zM31 377v238c0 88 64 114 130 114s130 -26 130 -114v-238
c0 -88 -64 -114 -130 -114s-130 26 -130 114zM139 627v-268c0 -15 3 -30 22 -30s22 15 22 30v268c0 15 -3 30 -22 30s-22 -15 -22 -30zM449 99v238c0 88 64 114 130 114s130 -26 130 -114v-238c0 -88 -64 -114 -130 -114s-130 26 -130 114zM557 355v-268c0 -15 3 -30 22 -30
s22 15 22 30v268c0 15 -3 30 -22 30s-22 -15 -22 -30zM193 -15l278 744h77l-279 -744h-76z" />
    <glyph glyph-name="questiondown" unicode="&#xbf;" horiz-adv-x="480" 
d="M35 70v106c0 125 51 186 132 186c59 0 86 -22 105 -51h2v76h165v-196h-165v5c0 22 -12 33 -35 33c-28 0 -32 -24 -32 -46v-184c0 -20 7 -40 30 -40c34 0 36 26 36 51v90h172v-54c0 -85 -26 -189 -205 -189c-141 0 -205 65 -205 213zM274 442v144h165v-144h-165z" />
    <glyph glyph-name="grave" unicode="`" horiz-adv-x="222" 
d="M120 635l-186 108h172l86 -108h-72z" />
    <glyph glyph-name="acute" unicode="&#xb4;" horiz-adv-x="222" 
d="M30 635l86 108h172l-186 -108h-72z" />
    <glyph glyph-name="circumflex" unicode="&#x2c6;" horiz-adv-x="222" 
d="M-46 635l113 108h84l117 -108h-85l-72 33l-71 -33h-86z" />
    <glyph glyph-name="tilde" unicode="&#x2dc;" horiz-adv-x="222" 
d="M0 638l-34 28c23 35 58 77 104 77c41 0 67 -36 107 -36c23 0 32 11 44 29l35 -22c-22 -40 -61 -79 -110 -79c-39 0 -72 33 -103 33c-22 0 -31 -14 -43 -30z" />
    <glyph glyph-name="macron" unicode="&#xaf;" horiz-adv-x="222" 
d="M-30 657v72h282v-72h-282z" />
    <glyph glyph-name="breve" unicode="&#x2d8;" horiz-adv-x="222" 
d="M-17 747h51c9 -35 39 -40 72 -40c40 0 65 2 81 40h52c-12 -77 -53 -112 -130 -112c-75 0 -122 32 -126 112z" />
    <glyph glyph-name="dotaccent" unicode="&#x2d9;" horiz-adv-x="222" 
d="M36 635v108h150v-108h-150z" />
    <glyph glyph-name="dieresis" unicode="&#xa8;" horiz-adv-x="222" 
d="M-68 635v108h150v-108h-150zM140 635v108h150v-108h-150z" />
    <glyph glyph-name="ring" unicode="&#x2da;" horiz-adv-x="222" 
d="M12 734c0 54 43 98 99 98c51 0 99 -43 99 -98s-44 -99 -99 -99c-56 0 -99 47 -99 99zM66 734c0 -25 20 -45 45 -45c26 0 45 23 45 45c0 25 -21 44 -45 44c-23 0 -45 -21 -45 -44z" />
    <glyph glyph-name="cedilla" unicode="&#xb8;" horiz-adv-x="222" 
d="M71 24h54v-57h11c47 0 72 -29 72 -76c0 -58 -46 -94 -111 -94c-12 0 -22 1 -31 4v47c5 -2 11 -3 23 -3c28 0 41 20 41 33c0 23 -15 32 -42 32c-6 0 -12 -1 -17 -3v117z" />
    <glyph glyph-name="hungarumlaut" unicode="&#x2dd;" horiz-adv-x="222" 
d="M131 635l86 108h172l-186 -108h-72zM-77 635l86 108h172l-186 -108h-72z" />
    <glyph glyph-name="ogonek" unicode="&#x2db;" horiz-adv-x="222" 
d="M108 0h76c-50 -30 -98 -72 -98 -100c0 -30 24 -43 52 -43c31 0 54 7 70 14l12 -56c-23 -8 -64 -18 -109 -18c-79 0 -109 31 -109 82c0 53 58 97 106 121z" />
    <glyph glyph-name="caron" unicode="&#x2c7;" horiz-adv-x="222" 
d="M67 635l-113 108h86l71 -36l72 36h85l-117 -108h-84z" />
    <glyph glyph-name="emdash" unicode="&#x2014;" horiz-adv-x="1000" 
d="M0 252v138h1000v-138h-1000z" />
    <glyph glyph-name="AE" unicode="&#xc6;" horiz-adv-x="611" 
d="M229 252h61v342h-2zM0 0l156 714h438v-144h-132v-131h123v-138h-123v-157h140v-144h-312v126h-83l-23 -126h-184z" />
    <glyph glyph-name="ordfeminine" unicode="&#xaa;" horiz-adv-x="288" 
d="M274 625v-257h-111v20c-17 -16 -44 -29 -73 -29c-50 0 -76 31 -76 75v47c0 41 3 55 74 79c65 23 72 29 72 49v39c0 10 -8 21 -21 21s-17 -11 -17 -21v-63h-108v36c0 78 41 108 128 108c82 0 132 -23 132 -104zM122 484v-37c0 -10 6 -19 16 -19c15 0 22 10 22 18v91
c-25 -13 -38 -28 -38 -53z" />
    <glyph glyph-name="Lslash" unicode="&#x141;" horiz-adv-x="333" 
d="M-41 230v114l63 43v327h184v-200l101 70v-114l-101 -70v-262h122v-138h-306v273z" />
    <glyph glyph-name="Oslash" unicode="&#xd8;" horiz-adv-x="482" 
d="M206 562v-207h2l68 141v66c0 25 -7 47 -35 47s-35 -22 -35 -47zM206 219v-67c0 -25 7 -47 35 -47s35 22 35 47v208h-2zM22 206v302c0 113 34 221 219 221c60 0 103 -11 136 -30l15 30h68l-37 -72c29 -42 37 -95 37 -149v-302c0 -113 -34 -221 -219 -221
c-60 0 -105 12 -136 31l-16 -31h-67l37 74c-30 41 -37 93 -37 147z" />
    <glyph glyph-name="OE" unicode="&#x152;" horiz-adv-x="611" 
d="M22 228v258c0 161 73 236 234 236c14 0 35 -2 56 -4s40 -4 49 -4h232v-144h-146v-131h138v-138h-138v-157h155v-144h-249c-18 0 -36 -2 -54 -4s-36 -4 -54 -4c-208 0 -223 129 -223 236zM206 560v-395c0 -26 2 -53 34 -53c35 0 35 31 35 53v396c0 34 -8 52 -33 52
c-27 0 -37 -16 -36 -53z" />
    <glyph glyph-name="ordmasculine" unicode="&#xba;" horiz-adv-x="302" 
d="M14 475v137c0 91 73 117 138 117c64 0 136 -26 136 -117v-137c0 -91 -72 -116 -136 -116c-65 0 -138 25 -138 116zM128 639v-185c0 -12 7 -23 23 -23s23 11 23 23v185c0 12 -7 24 -23 24s-23 -12 -23 -24z" />
    <glyph glyph-name="ae" unicode="&#xe6;" horiz-adv-x="646" 
d="M402 455v-75h58v72c0 22 -6 41 -31 41c-22 0 -27 -15 -27 -38zM179 190v-61c0 -17 10 -33 26 -33c22 0 32 17 32 30v153c-38 -23 -58 -48 -58 -89zM14 110v79c0 67 4 91 113 131c100 38 110 48 110 82v74c0 17 -10 35 -31 35c-20 0 -27 -17 -27 -35v-116h-165v62
c0 129 62 179 196 179c49 0 79 -6 117 -26c35 16 68 26 107 26c86 0 198 -47 198 -194v-123h-230v-153c0 -23 5 -38 27 -38c25 0 31 19 31 41v105h172v-60c0 -152 -104 -194 -198 -194c-67 0 -123 17 -162 65c-45 -47 -76 -65 -142 -65c-76 0 -116 51 -116 125z" />
    <glyph glyph-name="dotlessi" unicode="&#x131;" horiz-adv-x="222" 
d="M22 0v586h178v-586h-178z" />
    <glyph glyph-name="lslash" unicode="&#x142;" horiz-adv-x="222" 
d="M-30 233v96l52 39v346h178v-214l52 39v-96l-52 -39v-404h-178v272z" />
    <glyph glyph-name="oslash" unicode="&#xf8;" horiz-adv-x="464" 
d="M200 454v-158h2l62 111v47c0 20 -10 39 -32 39s-32 -19 -32 -39zM264 144v150h-2l-62 -110v-40c0 -20 10 -39 32 -39s32 19 32 39zM22 179v228c0 152 112 194 210 194c43 0 89 -8 126 -30l18 30h66l-39 -66c24 -31 39 -72 39 -128v-228c0 -152 -112 -194 -210 -194
c-44 0 -92 9 -129 33l-19 -33h-62l39 69c-24 28 -39 69 -39 125z" />
    <glyph glyph-name="oe" unicode="&#x153;" horiz-adv-x="685" 
d="M200 454v-310c0 -20 10 -39 32 -39s32 19 32 39v310c0 20 -10 39 -32 39s-32 -19 -32 -39zM22 179v228c0 152 112 194 210 194c45 0 100 -17 128 -35c26 18 81 35 113 35c86 0 198 -47 198 -194v-123h-242v-153c0 -23 5 -38 35 -38c29 0 35 19 35 41v105h172v-60
c0 -152 -104 -194 -204 -194c-49 0 -85 9 -119 25c-28 -16 -72 -25 -116 -25c-98 0 -210 42 -210 194zM487 380v72c0 22 -6 41 -29 41c-24 0 -29 -15 -29 -38v-75h58z" />
    <glyph glyph-name="germandbls" unicode="&#xdf;" 
d="M22 0v559c0 76 25 170 207 170c163 0 203 -74 203 -158v-66c0 -59 -12 -102 -72 -120v-2c63 -5 77 -64 77 -118v-132c0 -89 -24 -133 -120 -133h-88v78c23 3 30 10 30 51v184c0 22 -9 28 -30 31v84c21 3 31 9 31 31v130c0 29 -9 38 -30 38c-27 0 -30 -15 -30 -48v-579
h-178z" />
    <glyph glyph-name="divide" unicode="&#xf7;" horiz-adv-x="600" 
d="M47 193v120h506v-120h-506zM208 460c0 51 41 92 92 92s92 -41 92 -92s-41 -92 -92 -92s-92 41 -92 92zM208 46c0 51 41 92 92 92s92 -41 92 -92s-41 -92 -92 -92s-92 41 -92 92z" />
    <glyph glyph-name="threequarters" unicode="&#xbe;" horiz-adv-x="721" 
d="M22 419v40h108v-75c0 -18 6 -35 22 -35c22 0 22 19 22 31v64c0 33 -10 44 -46 44h-26v66h22c31 0 50 2 50 39v50c0 11 -7 20 -21 20c-17 0 -23 -11 -23 -30v-48h-108v22c0 97 42 122 130 122c59 0 133 -18 133 -102v-25c0 -30 -16 -67 -55 -68v-2c61 -7 64 -51 64 -101
v-30c0 -88 -48 -118 -139 -118c-128 0 -133 66 -133 136zM203 -15l278 744h77l-279 -744h-76zM503 150h58v218h-2zM550 0v78h-146v67l101 283h156v-278h38v-72h-38v-78h-111z" />
    <glyph glyph-name="onequarter" unicode="&#xbc;" horiz-adv-x="721" 
d="M503 150h58v218h-2zM550 0v78h-146v67l101 283h156v-278h38v-72h-38v-78h-111zM183 -15l278 744h77l-279 -744h-76zM105 292v253c0 33 -4 49 -42 49h-41v54c57 11 99 29 132 72h65v-428h-114z" />
    <glyph glyph-name="onesuperior" unicode="&#xb9;" horiz-adv-x="240" 
d="M105 292v253c0 33 -4 49 -42 49h-41v54c57 11 99 29 132 72h65v-428h-114z" />
    <glyph glyph-name="multiply" unicode="&#xd7;" horiz-adv-x="600" 
d="M217 253l-153 154l82 82l154 -154l154 154l82 -82l-154 -154l154 -154l-82 -82l-154 155l-154 -155l-82 82z" />
    <glyph glyph-name="registered" unicode="&#xae;" horiz-adv-x="800" 
d="M28 357c0 205 167 372 372 372s372 -167 372 -372s-167 -372 -372 -372s-372 167 -372 372zM118 357c0 -156 126 -282 282 -282s282 126 282 282s-126 282 -282 282s-282 -126 -282 -282zM250 156v403h149c106 0 170 -27 170 -123c0 -75 -44 -103 -108 -106l102 -174
h-102l-93 168h-28v-168h-90zM340 396h77c35 0 56 9 56 50c0 38 -46 41 -76 41h-57v-91z" />
    <glyph glyph-name="Thorn" unicode="&#xde;" horiz-adv-x="444" 
d="M22 0v714h178v-146h63c106 0 169 -52 169 -163v-88c0 -103 -38 -172 -152 -172h-80v-145h-178zM200 448v-183h32c32 0 44 15 44 43v97c0 28 -12 43 -44 43h-32z" />
    <glyph glyph-name="brokenbar" unicode="&#xa6;" horiz-adv-x="222" 
d="M51 -15v275h120v-275h-120zM51 454v275h120v-275h-120z" />
    <glyph glyph-name="Eth" unicode="&#xd0;" horiz-adv-x="482" 
d="M22 0v321h-34v84h34v309h232c125 0 206 -23 206 -183v-394c0 -107 -82 -137 -163 -137h-275zM206 321v-201h27c27 0 44 25 43 59v356c1 34 -16 59 -43 59h-27v-189h33v-84h-33z" />
    <glyph glyph-name="onehalf" unicode="&#xbd;" horiz-adv-x="721" 
d="M161 -15l278 744h77l-279 -744h-76zM105 292v253c0 33 -4 49 -42 49h-41v54c57 11 99 29 132 72h65v-428h-114zM425 0v62l131 203c13 20 29 46 29 73c0 14 -8 27 -24 27c-24 0 -28 -17 -28 -36v-48h-108v32c0 94 61 124 136 124c82 0 138 -36 138 -108
c0 -31 -13 -62 -31 -89l-107 -162h129v-78h-265z" />
    <glyph glyph-name="minus" unicode="&#x2212;" horiz-adv-x="600" 
d="M553 193h-506v120h506v-120z" />
    <glyph glyph-name="ccedilla" unicode="&#xe7;" horiz-adv-x="444" 
d="M22 179v228c0 152 112 194 210 194c119 0 198 -63 198 -189v-49h-172v96c0 16 -2 34 -29 34s-29 -18 -29 -34v-320c0 -30 5 -46 32 -46c24 0 32 16 32 48v101h172v-29c0 -181 -88 -227 -200 -228v-18h11c47 0 72 -29 72 -76c0 -58 -46 -94 -111 -94c-12 0 -22 1 -31 4v47
c5 -2 11 -3 23 -3c28 0 41 20 41 33c0 23 -15 32 -42 32c-6 0 -12 -1 -17 -3v83c-82 12 -160 62 -160 189z" />
    <glyph glyph-name="eth" unicode="&#xf0;" horiz-adv-x="464" 
d="M200 430v-310c0 -20 10 -39 32 -39s32 19 32 39v310c0 20 -10 39 -32 39s-32 -19 -32 -39zM110 562l-76 54l87 37c-32 15 -62 25 -83 29l101 77c41 -4 85 -20 126 -44l97 41l74 -52l-98 -43c61 -57 104 -134 104 -218v-264c0 -152 -112 -194 -210 -194s-210 42 -210 194
v170c0 170 112 192 176 192c28 0 42 -3 50 -13l4 2c-5 28 -25 53 -49 73z" />
    <glyph glyph-name="plusminus" unicode="&#xb1;" horiz-adv-x="600" 
d="M240 388v118h120v-118h193v-120h-193v-118h-120v118h-193v120h193zM47 0v120h506v-120h-506z" />
    <glyph glyph-name="Ccedilla" unicode="&#xc7;" 
d="M22 206v302c0 113 45 221 223 221c135 0 206 -75 206 -201v-101h-184v133c0 24 0 49 -33 49c-21 0 -28 -22 -28 -47v-410c0 -25 7 -47 28 -47c33 0 33 27 33 58v145h184v-118c0 -124 -76 -202 -205 -205v-18h11c47 0 72 -29 72 -76c0 -58 -46 -94 -111 -94
c-12 0 -22 1 -31 4v47c5 -2 11 -3 23 -3c28 0 41 20 41 33c0 23 -15 32 -42 32c-6 0 -12 -1 -17 -3v82c-142 17 -170 115 -170 217z" />
    <glyph glyph-name="thorn" unicode="&#xfe;" horiz-adv-x="464" 
d="M22 -86v800h178v-177c30 35 73 64 121 64c102 0 121 -81 121 -183v-231c0 -92 -9 -202 -126 -202c-48 0 -86 27 -114 65h-2v-136h-178zM200 446v-291c0 -28 10 -50 32 -50c24 0 32 19 32 50v291c0 25 -6 41 -32 41c-21 0 -32 -13 -32 -41z" />
    <glyph glyph-name="copyright" unicode="&#xa9;" horiz-adv-x="800" 
d="M489 303h100c-14 -103 -91 -157 -178 -157c-124 0 -206 94 -206 214c0 123 78 215 204 215c90 0 161 -53 176 -153h-96c-9 45 -46 63 -81 63c-63 0 -95 -46 -95 -123c0 -74 37 -126 93 -126c45 0 79 22 83 67zM28 357c0 205 167 372 372 372s372 -167 372 -372
s-167 -372 -372 -372s-372 167 -372 372zM118 357c0 -156 126 -282 282 -282s282 126 282 282s-126 282 -282 282s-282 -126 -282 -282z" />
    <glyph glyph-name="logicalnot" unicode="&#xac;" horiz-adv-x="600" 
d="M433 108v197h-386v120h506v-317h-120z" />
    <glyph glyph-name="twosuperior" unicode="&#xb2;" horiz-adv-x="312" 
d="M22 292v62l131 203c13 20 29 46 29 73c0 14 -8 27 -24 27c-24 0 -28 -17 -28 -36v-48h-108v32c0 94 61 124 136 124c82 0 138 -36 138 -108c0 -31 -13 -62 -31 -89l-107 -162h129v-78h-265z" />
    <glyph glyph-name="threesuperior" unicode="&#xb3;" horiz-adv-x="312" 
d="M22 419v40h108v-75c0 -18 6 -35 22 -35c22 0 22 19 22 31v64c0 33 -10 44 -46 44h-26v66h22c31 0 50 2 50 39v50c0 11 -7 20 -21 20c-17 0 -23 -11 -23 -30v-48h-108v22c0 97 42 122 130 122c59 0 133 -18 133 -102v-25c0 -30 -16 -67 -55 -68v-2c61 -7 64 -51 64 -101
v-30c0 -88 -48 -118 -139 -118c-128 0 -133 66 -133 136z" />
    <glyph glyph-name="trademark" unicode="&#x2122;" horiz-adv-x="1000" 
d="M161 302v322h-112v90h344v-90h-112v-322h-120zM465 302v412h156l87 -239l87 239h156v-412h-108v268h-2l-88 -268h-90l-88 268h-2v-268h-108z" />
    <glyph glyph-name="degree" unicode="&#xb0;" horiz-adv-x="400" 
d="M57 586c0 79 64 143 143 143s143 -64 143 -143s-64 -143 -143 -143s-143 64 -143 143zM119 586c0 -45 36 -81 81 -81s81 36 81 81s-36 81 -81 81s-81 -36 -81 -81z" />
    <glyph glyph-name="mu" unicode="&#xb5;" 
d="M27 -86v672h178v-439c0 -18 5 -42 28 -42c24 0 25 25 25 43v438h178v-586h-178v45h-2c-7 -15 -22 -30 -37 -30c-5 0 -9 1 -14 3v-104h-178z" />
    <glyph glyph-name="Aacute" unicode="&#xc1;" 
d="M198 252h64l-32 336h-2zM5 0l90 714h265l98 -714h-184l-9 126h-67l-9 -126h-184zM151 759l86 108h172l-186 -108h-72z" />
    <glyph glyph-name="Acircumflex" unicode="&#xc2;" 
d="M198 252h64l-32 336h-2zM5 0l90 714h265l98 -714h-184l-9 126h-67l-9 -126h-184zM75 759l113 108h84l117 -108h-85l-72 33l-71 -33h-86z" />
    <glyph glyph-name="Adieresis" unicode="&#xc4;" 
d="M198 252h64l-32 336h-2zM5 0l90 714h265l98 -714h-184l-9 126h-67l-9 -126h-184zM53 759v108h150v-108h-150zM261 759v108h150v-108h-150z" />
    <glyph glyph-name="Agrave" unicode="&#xc0;" 
d="M198 252h64l-32 336h-2zM5 0l90 714h265l98 -714h-184l-9 126h-67l-9 -126h-184zM241 759l-186 108h172l86 -108h-72z" />
    <glyph glyph-name="Aring" unicode="&#xc5;" 
d="M198 252h64l-32 336h-2zM5 0l90 714h265l98 -714h-184l-9 126h-67l-9 -126h-184zM133 838c0 54 43 98 99 98c51 0 99 -43 99 -98s-44 -99 -99 -99c-56 0 -99 47 -99 99zM187 838c0 -25 20 -45 45 -45c26 0 45 23 45 45c0 25 -21 44 -45 44c-23 0 -45 -21 -45 -44z" />
    <glyph glyph-name="Atilde" unicode="&#xc3;" 
d="M198 252h64l-32 336h-2zM5 0l90 714h265l98 -714h-184l-9 126h-67l-9 -126h-184zM121 762l-34 28c23 35 58 77 104 77c41 0 67 -36 107 -36c23 0 32 11 44 29l35 -22c-22 -40 -61 -79 -110 -79c-39 0 -72 33 -103 33c-22 0 -31 -14 -43 -30z" />
    <glyph glyph-name="Eacute" unicode="&#xc9;" horiz-adv-x="352" 
d="M22 0v714h311v-144h-127v-131h119v-138h-119v-157h137v-144h-321zM95 759l86 108h172l-186 -108h-72z" />
    <glyph glyph-name="Ecircumflex" unicode="&#xca;" horiz-adv-x="352" 
d="M22 0v714h311v-144h-127v-131h119v-138h-119v-157h137v-144h-321zM19 759l113 108h84l117 -108h-85l-72 33l-71 -33h-86z" />
    <glyph glyph-name="Edieresis" unicode="&#xcb;" horiz-adv-x="352" 
d="M22 0v714h311v-144h-127v-131h119v-138h-119v-157h137v-144h-321zM-3 759v108h150v-108h-150zM205 759v108h150v-108h-150z" />
    <glyph glyph-name="Egrave" unicode="&#xc8;" horiz-adv-x="352" 
d="M22 0v714h311v-144h-127v-131h119v-138h-119v-157h137v-144h-321zM185 759l-186 108h172l86 -108h-72z" />
    <glyph glyph-name="Iacute" unicode="&#xcd;" horiz-adv-x="222" 
d="M19 0v714h184v-714h-184zM30 759l86 108h172l-186 -108h-72z" />
    <glyph glyph-name="Icircumflex" unicode="&#xce;" horiz-adv-x="222" 
d="M19 0v714h184v-714h-184zM-46 759l113 108h84l117 -108h-85l-72 33l-71 -33h-86z" />
    <glyph glyph-name="Idieresis" unicode="&#xcf;" horiz-adv-x="222" 
d="M19 0v714h184v-714h-184zM-68 759v108h150v-108h-150zM140 759v108h150v-108h-150z" />
    <glyph glyph-name="Igrave" unicode="&#xcc;" horiz-adv-x="222" 
d="M19 0v714h184v-714h-184zM120 759l-186 108h172l86 -108h-72z" />
    <glyph glyph-name="Ntilde" unicode="&#xd1;" 
d="M22 0v714h156l105 -355h2v355h156v-714h-156l-104 399h-3v-399h-156zM121 762l-34 28c23 35 58 77 104 77c41 0 67 -36 107 -36c23 0 32 11 44 29l35 -22c-22 -40 -61 -79 -110 -79c-39 0 -72 33 -103 33c-22 0 -31 -14 -43 -30z" />
    <glyph glyph-name="Oacute" unicode="&#xd3;" horiz-adv-x="482" 
d="M22 206v302c0 113 34 221 219 221s219 -108 219 -221v-302c0 -113 -34 -221 -219 -221s-219 108 -219 221zM206 562v-410c0 -25 7 -47 35 -47s35 22 35 47v410c0 25 -7 47 -35 47s-35 -22 -35 -47zM160 759l86 108h172l-186 -108h-72z" />
    <glyph glyph-name="Ocircumflex" unicode="&#xd4;" horiz-adv-x="482" 
d="M22 206v302c0 113 34 221 219 221s219 -108 219 -221v-302c0 -113 -34 -221 -219 -221s-219 108 -219 221zM206 562v-410c0 -25 7 -47 35 -47s35 22 35 47v410c0 25 -7 47 -35 47s-35 -22 -35 -47zM84 759l113 108h84l117 -108h-85l-72 33l-71 -33h-86z" />
    <glyph glyph-name="Odieresis" unicode="&#xd6;" horiz-adv-x="482" 
d="M22 206v302c0 113 34 221 219 221s219 -108 219 -221v-302c0 -113 -34 -221 -219 -221s-219 108 -219 221zM206 562v-410c0 -25 7 -47 35 -47s35 22 35 47v410c0 25 -7 47 -35 47s-35 -22 -35 -47zM62 759v108h150v-108h-150zM270 759v108h150v-108h-150z" />
    <glyph glyph-name="Ograve" unicode="&#xd2;" horiz-adv-x="482" 
d="M22 206v302c0 113 34 221 219 221s219 -108 219 -221v-302c0 -113 -34 -221 -219 -221s-219 108 -219 221zM206 562v-410c0 -25 7 -47 35 -47s35 22 35 47v410c0 25 -7 47 -35 47s-35 -22 -35 -47zM250 759l-186 108h172l86 -108h-72z" />
    <glyph glyph-name="Otilde" unicode="&#xd5;" horiz-adv-x="482" 
d="M22 206v302c0 113 34 221 219 221s219 -108 219 -221v-302c0 -113 -34 -221 -219 -221s-219 108 -219 221zM206 562v-410c0 -25 7 -47 35 -47s35 22 35 47v410c0 25 -7 47 -35 47s-35 -22 -35 -47zM130 762l-34 28c23 35 58 77 104 77c41 0 67 -36 107 -36
c23 0 32 11 44 29l35 -22c-22 -40 -61 -79 -110 -79c-39 0 -72 33 -103 33c-22 0 -31 -14 -43 -30z" />
    <glyph glyph-name="Scaron" unicode="&#x160;" horiz-adv-x="444" 
d="M15 171v89h172v-115c0 -23 5 -46 31 -46c33 0 34 37 34 65v30c0 131 -238 114 -238 318v40c0 130 79 177 201 177c172 0 203 -80 203 -157v-67h-165v59c0 45 -20 51 -36 51c-18 0 -31 -11 -31 -47v-31c0 -104 244 -103 244 -313v-56c0 -145 -87 -183 -215 -183
c-175 0 -200 84 -200 186zM178 759l-113 108h86l71 -36l72 36h85l-117 -108h-84z" />
    <glyph glyph-name="Uacute" unicode="&#xda;" horiz-adv-x="482" 
d="M22 196v518h184v-545c0 -42 10 -58 35 -58s35 16 35 58v545h184v-518c0 -120 -49 -211 -219 -211s-219 91 -219 211zM160 759l86 108h172l-186 -108h-72z" />
    <glyph glyph-name="Ucircumflex" unicode="&#xdb;" horiz-adv-x="482" 
d="M22 196v518h184v-545c0 -42 10 -58 35 -58s35 16 35 58v545h184v-518c0 -120 -49 -211 -219 -211s-219 91 -219 211zM84 759l113 108h84l117 -108h-85l-72 33l-71 -33h-86z" />
    <glyph glyph-name="Udieresis" unicode="&#xdc;" horiz-adv-x="482" 
d="M22 196v518h184v-545c0 -42 10 -58 35 -58s35 16 35 58v545h184v-518c0 -120 -49 -211 -219 -211s-219 91 -219 211zM62 759v108h150v-108h-150zM270 759v108h150v-108h-150z" />
    <glyph glyph-name="Ugrave" unicode="&#xd9;" horiz-adv-x="482" 
d="M22 196v518h184v-545c0 -42 10 -58 35 -58s35 16 35 58v545h184v-518c0 -120 -49 -211 -219 -211s-219 91 -219 211zM250 759l-186 108h172l86 -108h-72z" />
    <glyph glyph-name="Yacute" unicode="&#xdd;" horiz-adv-x="444" 
d="M133 0v260l-133 454h172l53 -283h2l45 283h172l-133 -454v-260h-178zM141 759l86 108h172l-186 -108h-72z" />
    <glyph glyph-name="Ydieresis" unicode="&#x178;" horiz-adv-x="444" 
d="M133 0v260l-133 454h172l53 -283h2l45 283h172l-133 -454v-260h-178zM43 759v108h150v-108h-150zM251 759v108h150v-108h-150z" />
    <glyph glyph-name="Zcaron" unicode="&#x17d;" horiz-adv-x="352" 
d="M23 714h314v-127l-140 -449h149v-138h-340v112l152 464h-135v138zM132 759l-113 108h86l71 -36l72 36h85l-117 -108h-84z" />
    <glyph glyph-name="aacute" unicode="&#xe1;" horiz-adv-x="444" 
d="M422 428v-428h-172v33c-26 -27 -67 -48 -112 -48c-76 0 -116 51 -116 125v79c0 67 4 91 113 131c100 38 109 48 109 82v74c0 17 -10 35 -30 35s-27 -17 -27 -35v-116h-165v62c0 129 62 179 196 179c126 0 204 -37 204 -173zM187 190v-61c0 -17 10 -33 26 -33
c22 0 31 17 31 30v153c-37 -23 -57 -48 -57 -89zM141 635l86 108h172l-186 -108h-72z" />
    <glyph glyph-name="acircumflex" unicode="&#xe2;" horiz-adv-x="444" 
d="M422 428v-428h-172v33c-26 -27 -67 -48 -112 -48c-76 0 -116 51 -116 125v79c0 67 4 91 113 131c100 38 109 48 109 82v74c0 17 -10 35 -30 35s-27 -17 -27 -35v-116h-165v62c0 129 62 179 196 179c126 0 204 -37 204 -173zM187 190v-61c0 -17 10 -33 26 -33
c22 0 31 17 31 30v153c-37 -23 -57 -48 -57 -89zM65 635l113 108h84l117 -108h-85l-72 33l-71 -33h-86z" />
    <glyph glyph-name="adieresis" unicode="&#xe4;" horiz-adv-x="444" 
d="M422 428v-428h-172v33c-26 -27 -67 -48 -112 -48c-76 0 -116 51 -116 125v79c0 67 4 91 113 131c100 38 109 48 109 82v74c0 17 -10 35 -30 35s-27 -17 -27 -35v-116h-165v62c0 129 62 179 196 179c126 0 204 -37 204 -173zM187 190v-61c0 -17 10 -33 26 -33
c22 0 31 17 31 30v153c-37 -23 -57 -48 -57 -89zM43 635v108h150v-108h-150zM251 635v108h150v-108h-150z" />
    <glyph glyph-name="agrave" unicode="&#xe0;" horiz-adv-x="444" 
d="M422 428v-428h-172v33c-26 -27 -67 -48 -112 -48c-76 0 -116 51 -116 125v79c0 67 4 91 113 131c100 38 109 48 109 82v74c0 17 -10 35 -30 35s-27 -17 -27 -35v-116h-165v62c0 129 62 179 196 179c126 0 204 -37 204 -173zM187 190v-61c0 -17 10 -33 26 -33
c22 0 31 17 31 30v153c-37 -23 -57 -48 -57 -89zM231 635l-186 108h172l86 -108h-72z" />
    <glyph glyph-name="aring" unicode="&#xe5;" horiz-adv-x="444" 
d="M422 428v-428h-172v33c-26 -27 -67 -48 -112 -48c-76 0 -116 51 -116 125v79c0 67 4 91 113 131c100 38 109 48 109 82v74c0 17 -10 35 -30 35s-27 -17 -27 -35v-116h-165v62c0 129 62 179 196 179c126 0 204 -37 204 -173zM187 190v-61c0 -17 10 -33 26 -33
c22 0 31 17 31 30v153c-37 -23 -57 -48 -57 -89zM123 734c0 54 43 98 99 98c51 0 99 -43 99 -98s-44 -99 -99 -99c-56 0 -99 47 -99 99zM177 734c0 -25 20 -45 45 -45c26 0 45 23 45 45c0 25 -21 44 -45 44c-23 0 -45 -21 -45 -44z" />
    <glyph glyph-name="atilde" unicode="&#xe3;" horiz-adv-x="444" 
d="M422 428v-428h-172v33c-26 -27 -67 -48 -112 -48c-76 0 -116 51 -116 125v79c0 67 4 91 113 131c100 38 109 48 109 82v74c0 17 -10 35 -30 35s-27 -17 -27 -35v-116h-165v62c0 129 62 179 196 179c126 0 204 -37 204 -173zM187 190v-61c0 -17 10 -33 26 -33
c22 0 31 17 31 30v153c-37 -23 -57 -48 -57 -89zM111 638l-34 28c23 35 58 77 104 77c41 0 67 -36 107 -36c23 0 32 11 44 29l35 -22c-22 -40 -61 -79 -110 -79c-39 0 -72 33 -103 33c-22 0 -31 -14 -43 -30z" />
    <glyph glyph-name="eacute" unicode="&#xe9;" horiz-adv-x="444" 
d="M22 179v228c0 152 112 194 210 194c86 0 198 -47 198 -194v-123h-230v-153c0 -23 5 -38 27 -38c25 0 31 19 31 41v105h172v-60c0 -152 -104 -194 -198 -194c-98 0 -210 42 -210 194zM200 455v-75h58v72c0 22 -6 41 -31 41c-22 0 -27 -15 -27 -38zM141 635l86 108h172
l-186 -108h-72z" />
    <glyph glyph-name="ecircumflex" unicode="&#xea;" horiz-adv-x="444" 
d="M22 179v228c0 152 112 194 210 194c86 0 198 -47 198 -194v-123h-230v-153c0 -23 5 -38 27 -38c25 0 31 19 31 41v105h172v-60c0 -152 -104 -194 -198 -194c-98 0 -210 42 -210 194zM200 455v-75h58v72c0 22 -6 41 -31 41c-22 0 -27 -15 -27 -38zM65 635l113 108h84
l117 -108h-85l-72 33l-71 -33h-86z" />
    <glyph glyph-name="edieresis" unicode="&#xeb;" horiz-adv-x="444" 
d="M22 179v228c0 152 112 194 210 194c86 0 198 -47 198 -194v-123h-230v-153c0 -23 5 -38 27 -38c25 0 31 19 31 41v105h172v-60c0 -152 -104 -194 -198 -194c-98 0 -210 42 -210 194zM200 455v-75h58v72c0 22 -6 41 -31 41c-22 0 -27 -15 -27 -38zM43 635v108h150v-108
h-150zM251 635v108h150v-108h-150z" />
    <glyph glyph-name="egrave" unicode="&#xe8;" horiz-adv-x="444" 
d="M22 179v228c0 152 112 194 210 194c86 0 198 -47 198 -194v-123h-230v-153c0 -23 5 -38 27 -38c25 0 31 19 31 41v105h172v-60c0 -152 -104 -194 -198 -194c-98 0 -210 42 -210 194zM200 455v-75h58v72c0 22 -6 41 -31 41c-22 0 -27 -15 -27 -38zM231 635l-186 108h172
l86 -108h-72z" />
    <glyph glyph-name="iacute" unicode="&#xed;" horiz-adv-x="222" 
d="M22 0v586h178v-586h-178zM30 635l86 108h172l-186 -108h-72z" />
    <glyph glyph-name="icircumflex" unicode="&#xee;" horiz-adv-x="222" 
d="M22 0v586h178v-586h-178zM-46 635l113 108h84l117 -108h-85l-72 33l-71 -33h-86z" />
    <glyph glyph-name="idieresis" unicode="&#xef;" horiz-adv-x="222" 
d="M22 0v586h178v-586h-178zM-68 635v108h150v-108h-150zM140 635v108h150v-108h-150z" />
    <glyph glyph-name="igrave" unicode="&#xec;" horiz-adv-x="222" 
d="M22 0v586h178v-586h-178zM120 635l-186 108h172l86 -108h-72z" />
    <glyph glyph-name="ntilde" unicode="&#xf1;" 
d="M27 0v586h178v-45h2c14 29 54 60 108 60c75 0 121 -49 121 -156v-445h-178v439c0 18 -5 42 -28 42c-24 0 -25 -25 -25 -43v-438h-178zM121 638l-34 28c23 35 58 77 104 77c41 0 67 -36 107 -36c23 0 32 11 44 29l35 -22c-22 -40 -61 -79 -110 -79c-39 0 -72 33 -103 33
c-22 0 -31 -14 -43 -30z" />
    <glyph glyph-name="oacute" unicode="&#xf3;" horiz-adv-x="464" 
d="M22 179v228c0 152 112 194 210 194s210 -42 210 -194v-228c0 -152 -112 -194 -210 -194s-210 42 -210 194zM200 454v-310c0 -20 10 -39 32 -39s32 19 32 39v310c0 20 -10 39 -32 39s-32 -19 -32 -39zM151 635l86 108h172l-186 -108h-72z" />
    <glyph glyph-name="ocircumflex" unicode="&#xf4;" horiz-adv-x="464" 
d="M22 179v228c0 152 112 194 210 194s210 -42 210 -194v-228c0 -152 -112 -194 -210 -194s-210 42 -210 194zM200 454v-310c0 -20 10 -39 32 -39s32 19 32 39v310c0 20 -10 39 -32 39s-32 -19 -32 -39zM75 635l113 108h84l117 -108h-85l-72 33l-71 -33h-86z" />
    <glyph glyph-name="odieresis" unicode="&#xf6;" horiz-adv-x="464" 
d="M22 179v228c0 152 112 194 210 194s210 -42 210 -194v-228c0 -152 -112 -194 -210 -194s-210 42 -210 194zM200 454v-310c0 -20 10 -39 32 -39s32 19 32 39v310c0 20 -10 39 -32 39s-32 -19 -32 -39zM53 635v108h150v-108h-150zM261 635v108h150v-108h-150z" />
    <glyph glyph-name="ograve" unicode="&#xf2;" horiz-adv-x="464" 
d="M22 179v228c0 152 112 194 210 194s210 -42 210 -194v-228c0 -152 -112 -194 -210 -194s-210 42 -210 194zM200 454v-310c0 -20 10 -39 32 -39s32 19 32 39v310c0 20 -10 39 -32 39s-32 -19 -32 -39zM241 635l-186 108h172l86 -108h-72z" />
    <glyph glyph-name="otilde" unicode="&#xf5;" horiz-adv-x="464" 
d="M22 179v228c0 152 112 194 210 194s210 -42 210 -194v-228c0 -152 -112 -194 -210 -194s-210 42 -210 194zM200 454v-310c0 -20 10 -39 32 -39s32 19 32 39v310c0 20 -10 39 -32 39s-32 -19 -32 -39zM121 638l-34 28c23 35 58 77 104 77c41 0 67 -36 107 -36
c23 0 32 11 44 29l35 -22c-22 -40 -61 -79 -110 -79c-39 0 -72 33 -103 33c-22 0 -31 -14 -43 -30z" />
    <glyph glyph-name="scaron" unicode="&#x161;" horiz-adv-x="426" 
d="M14 147v64h165v-80c0 -17 10 -32 29 -32c16 0 32 10 32 34v30c0 90 -221 72 -221 255c0 78 18 183 198 183c75 0 188 -29 188 -149v-55h-165v55c0 25 -10 35 -27 35s-29 -8 -29 -35v-23c0 -36 60 -56 137 -100c81 -47 91 -94 91 -174c0 -130 -84 -170 -211 -170
c-114 0 -187 37 -187 162zM169 635l-113 108h86l71 -36l72 36h85l-117 -108h-84z" />
    <glyph glyph-name="uacute" unicode="&#xfa;" 
d="M27 141v445h178v-439c0 -18 5 -42 28 -42c24 0 25 25 25 43v438h178v-586h-178v45h-2c-16 -38 -70 -60 -108 -60c-75 0 -121 49 -121 156zM151 635l86 108h172l-186 -108h-72z" />
    <glyph glyph-name="ucircumflex" unicode="&#xfb;" 
d="M27 141v445h178v-439c0 -18 5 -42 28 -42c24 0 25 25 25 43v438h178v-586h-178v45h-2c-16 -38 -70 -60 -108 -60c-75 0 -121 49 -121 156zM75 635l113 108h84l117 -108h-85l-72 33l-71 -33h-86z" />
    <glyph glyph-name="udieresis" unicode="&#xfc;" 
d="M27 141v445h178v-439c0 -18 5 -42 28 -42c24 0 25 25 25 43v438h178v-586h-178v45h-2c-16 -38 -70 -60 -108 -60c-75 0 -121 49 -121 156zM53 635v108h150v-108h-150zM261 635v108h150v-108h-150z" />
    <glyph glyph-name="ugrave" unicode="&#xf9;" 
d="M27 141v445h178v-439c0 -18 5 -42 28 -42c24 0 25 25 25 43v438h178v-586h-178v45h-2c-16 -38 -70 -60 -108 -60c-75 0 -121 49 -121 156zM241 635l-186 108h172l86 -108h-72z" />
    <glyph glyph-name="yacute" unicode="&#xfd;" horiz-adv-x="407" 
d="M25 -86v84h41c28 2 35 11 35 36c0 5 -4 26 -6 38l-95 514h172l46 -451h2l31 451h156l-68 -502c-12 -88 -33 -170 -128 -170h-186zM123 635l86 108h172l-186 -108h-72z" />
    <glyph glyph-name="ydieresis" unicode="&#xff;" horiz-adv-x="407" 
d="M25 -86v84h41c28 2 35 11 35 36c0 5 -4 26 -6 38l-95 514h172l46 -451h2l31 451h156l-68 -502c-12 -88 -33 -170 -128 -170h-186zM25 635v108h150v-108h-150zM233 635v108h150v-108h-150z" />
    <glyph glyph-name="zcaron" unicode="&#x17e;" horiz-adv-x="333" 
d="M10 0v122l134 350h-122v114h294v-136l-128 -336h135v-114h-313zM123 635l-113 108h86l71 -36l72 36h85l-117 -108h-84z" />
    </font>
</defs>
</svg>
