<!-- Generated by IcoMoon.io -->
<svg version="1.1" xmlns="http://www.w3.org/2000/svg" width="32" height="32" viewBox="0 0 32 32">
<path fill="#f0f0f0" d="M4 0h24c2.209 0 4 1.791 4 4v24c0 2.209-1.791 4-4 4h-24c-2.209 0-4-1.791-4-4v-24c0-2.209 1.791-4 4-4z"></path>
<path fill="#00b068" d="M3 9.5h2.58c1.664 0 2.788 0.074 3.372 0.224 0.588 0.15 1.036 0.396 1.342 0.74 0.306 0.342 0.496 0.724 0.574 1.148 0.076 0.418 0.114 1.24 0.114 2.472v4.556c0 1.166-0.058 1.948-0.172 2.344-0.095 0.373-0.3 0.69-0.577 0.922l-0.003 0.002c-0.28 0.22-0.624 0.374-1.032 0.466-0.41 0.086-1.026 0.128-1.852 0.128h-4.346v-13zM6.446 11.724v8.552c0.498 0 0.802-0.096 0.918-0.29 0.114-0.198 0.172-0.73 0.172-1.598v-5.048c0-0.588-0.020-0.966-0.058-1.132-0.031-0.156-0.128-0.285-0.259-0.359l-0.003-0.001c-0.136-0.080-0.392-0.12-0.77-0.12zM13.052 9.5h5.748v2.6h-2.3v2.466h2.152v2.474h-2.152v2.86h2.528v2.6h-5.976v-13zM29 9.5l-1.752 13h-5.232l-1.988-13h3.634c0.42 3.58 0.72 6.608 0.9 9.080 0.18-2.5 0.37-4.72 0.566-6.664l0.238-2.416h3.634z"></path>
</svg>
