<svg xmlns="http://www.w3.org/2000/svg" width="32" height="32">
  <path fill="#f0f0f0" d="M4 0h24a4 4 0 0 1 4 4v24a4 4 0 0 1-4 4H4a4 4 0 0 1-4-4V4a4 4 0 0 1 4-4z"/>
  <path fill="#00b068" d="M3 9.5h2.58c1.664 0 2.788.074 3.372.224.588.15 1.036.396 1.342.74.306.342.496.724.574 1.148.076.418.114 1.24.114 2.472v4.556c0 1.166-.058 1.948-.172 2.344-.095.373-.3.69-.577.922l-.003.002c-.28.22-.624.374-1.032.466-.41.086-1.026.128-1.852.128H3v-13zm3.446 2.224v8.552c.498 0 .802-.096.918-.29.114-.198.172-.73.172-1.598V13.34c0-.588-.02-.966-.058-1.132a.53.53 0 0 0-.259-.359l-.003-.001c-.136-.08-.392-.12-.77-.12zM13.052 9.5H18.8v2.6h-2.3v2.466h2.152v2.474H16.5v2.86h2.528v2.6h-5.976v-13zM29 9.5l-1.752 13h-5.232l-1.988-13h3.634c.42 3.58.72 6.608.9 9.08.18-2.5.37-4.72.566-6.664l.238-2.416H29z"/>
</svg>
