<svg aria-hidden="true" style="position: absolute; width: 0; height: 0; overflow: hidden;" version="1.1" xmlns="http://www.w3.org/2000/svg" xmlns:xlink="http://www.w3.org/1999/xlink">
<defs>
<symbol id="icon-arrow" viewBox="0 0 32 32">
<path stroke-linejoin="round" stroke-linecap="round" stroke-miterlimit="4" stroke-width="3.5556" d="M3.111 28.889l25.778-25.778M28.889 3.111h-24M28.889 3.111v24"></path>
</symbol>
<symbol id="icon-menu" viewBox="0 0 36 32">
<path d="M1.2 4c0-1.325 1.075-2.4 2.4-2.4h28.8c1.325 0 2.4 1.075 2.4 2.4s-1.075 2.4-2.4 2.4h-28.8c-1.325 0-2.4-1.075-2.4-2.4v0zM1.2 16c0-1.325 1.075-2.4 2.4-2.4h28.8c1.325 0 2.4 1.075 2.4 2.4s-1.075 2.4-2.4 2.4h-28.8c-1.325 0-2.4-1.075-2.4-2.4v0zM1.2 28c0-1.325 1.075-2.4 2.4-2.4h28.8c1.325 0 2.4 1.075 2.4 2.4s-1.075 2.4-2.4 2.4h-28.8c-1.325 0-2.4-1.075-2.4-2.4v0z"></path>
</symbol>
</defs>
</svg>
