<svg aria-hidden="true" style="position: absolute; width: 0; height: 0; overflow: hidden;" version="1.1" xmlns="http://www.w3.org/2000/svg" xmlns:xlink="http://www.w3.org/1999/xlink">
<defs>
<symbol xmlns="http://www.w3.org/2000/svg" fill="none" viewBox="0 0 22 23" id="BenefitsArt">
    <path stroke="#14C57C" stroke-linecap="round" stroke-linejoin="round" stroke-width="2" d="M1 20.997c2 0 4.608.342 5.975-1.025a3.5 3.5 0 1 0-4.95-4.95c-1.367 1.367 0 3.975-1.025 5.975Z"></path>
    <path stroke="#14C57C" stroke-linecap="round" stroke-linejoin="round" stroke-width="2" d="M7 14.997c-.491-.491-.737-.737-.876-.994a2 2 0 0 1 .038-1.967c.148-.252.403-.488.913-.96l9.868-9.138a2.204 2.204 0 0 1 3.116 3.116l-9.137 9.868c-.473.51-.709.765-.96.913a2 2 0 0 1-1.968.038c-.257-.139-.503-.384-.994-.876Z"></path>
  </symbol>
  <symbol xmlns="http://www.w3.org/2000/svg" fill="none" viewBox="0 0 23 22" id="BenefitsCom">
    <path stroke="#14C57C" stroke-linecap="round" stroke-linejoin="round" stroke-width="2" d="M5.094 10.229A8.01 8.01 0 0 1 5 9c0-4.418 3.605-8 8.053-8 4.447 0 8.052 3.582 8.052 8 0 .998-.184 1.954-.52 2.835-.07.182-.105.274-.12.345a.897.897 0 0 0-.024.194c-.002.073.008.153.028.314l.403 3.27c.043.354.065.531.006.66a.5.5 0 0 1-.257.252c-.13.055-.306.03-.66-.022l-3.184-.467c-.167-.024-.25-.037-.326-.036a.898.898 0 0 0-.2.021c-.074.016-.169.051-.358.122a8.174 8.174 0 0 1-4.07.42M6.632 21C9.596 21 12 18.538 12 15.5S9.596 10 6.632 10c-2.965 0-5.369 2.462-5.369 5.5 0 .61.097 1.198.277 1.747.075.232.113.348.126.427.013.083.015.13.01.213-.005.08-.025.17-.065.351L1 21l2.995-.409c.163-.022.245-.034.316-.033.076 0 .115.005.19.02.07.013.173.05.381.123a5.246 5.246 0 0 0 1.75.299Z"></path>
  </symbol>
  <symbol xmlns="http://www.w3.org/2000/svg" fill="none" viewBox="0 0 24 24" id="BenefitsExpert">
    <path stroke="#14C57C" stroke-linecap="round" stroke-linejoin="round" stroke-width="2" d="M20 21c0-1.396 0-2.093-.172-2.661a4 4 0 0 0-2.667-2.667c-.568-.172-1.265-.172-2.661-.172h-5c-1.396 0-2.093 0-2.661.172a4 4 0 0 0-2.667 2.667C4 18.907 4 19.604 4 21M12 12a4.5 4.5 0 1 0 0-9 4.5 4.5 0 0 0 0 9Z"></path>
  </symbol>
  <symbol xmlns="http://www.w3.org/2000/svg" fill="none" viewBox="0 0 16 22" id="BenefitsUrgent">
    <path stroke="#14C57C" stroke-linecap="round" stroke-linejoin="round" stroke-width="2" d="M14.163 1H1.837A.837.837 0 0 0 1 1.837a10.05 10.05 0 0 0 2.943 7.106l1.22 1.22c.12.12.181.181.224.24a1 1 0 0 1 0 1.195 2.508 2.508 0 0 1-.224.24l-1.22 1.219A10.05 10.05 0 0 0 1 20.163c0 .462.375.837.837.837h12.326a.837.837 0 0 0 .837-.837 10.05 10.05 0 0 0-2.943-7.106l-1.22-1.22c-.12-.12-.181-.181-.224-.24a1 1 0 0 1 0-1.195c.043-.058.103-.118.224-.24l1.22-1.219A10.05 10.05 0 0 0 15 1.837.837.837 0 0 0 14.163 1Z"></path>
  </symbol>
  <symbol xmlns="http://www.w3.org/2000/svg" fill="none" viewBox="0 0 18 18" id="closeTheMenu">
    <path stroke="#F0F0F0" stroke-linecap="round" stroke-linejoin="round" stroke-width="2" d="M17 1 1 17"></path>
  </symbol>
  <symbol xmlns="http://www.w3.org/2000/svg" fill="none" viewBox="0 0 14 9" id="FAQVector">
    <path stroke="#F0F0F0" stroke-linecap="round" stroke-width="2" d="M13 1 7 7 1 1"></path>
  </symbol>
  <symbol xmlns="http://www.w3.org/2000/svg" fill="none" viewBox="0 0 22 16" id="HeaderburgerMenu">
    <path fill="#F0F0F0" d="M.334 15.026v-1.333h21.333v1.333H.334Zm0-6.36V7.333h21.333v1.333H.334Zm0-6.36V.973h21.333v1.333H.334Z"></path>
  </symbol>
  <symbol xmlns="http://www.w3.org/2000/svg" fill="none" viewBox="0 0 30 16" id="HeroarrowButton">
    <path fill="#14C57C" d="M1 7a1 1 0 0 0 0 2V7Zm28.707 1.707a1 1 0 0 0 0-1.414L23.343.929a1 1 0 1 0-1.414 1.414L27.586 8l-5.657 5.657a1 1 0 0 0 1.414 1.414l6.364-6.364ZM1 9h28V7H1v2Z"></path>
  </symbol>
  <symbol xmlns="http://www.w3.org/2000/svg" fill="none" viewBox="0 0 14 14" id="LersWorkCheÑk">
    <path fill="#14C57C" d="M7 0a7 7 0 1 1 0 14A7 7 0 0 1 7 0Zm-.872 8.381L4.573 6.825a.6.6 0 1 0-.849.849l1.98 1.98a.598.598 0 0 0 .849 0l4.1-4.101a.6.6 0 1 0-.848-.849L6.128 8.381Z"></path>
  </symbol>
  <symbol xmlns="http://www.w3.org/2000/svg" fill="none" viewBox="0 0 18 18" id="MyProjectVector">
    <path stroke-linecap="round" stroke-linejoin="round" stroke-width="2" d="m1.75 16.25 14.5-14.5m0 0H2.75m13.5 0v13.5"></path>
  </symbol>
  <symbol xmlns="http://www.w3.org/2000/svg" fill="none" viewBox="0 0 24 24" id="ReviewsLeft">
    <path stroke="#383A3D" stroke-linecap="round" stroke-linejoin="round" stroke-width="2" d="M20 12H4M10 6l-6 6 6 6"></path>
  </symbol>
  <symbol xmlns="http://www.w3.org/2000/svg" fill="none" viewBox="0 0 24 24" id="ReviewsRight">
    <path stroke="#F0F0F0" stroke-linecap="round" stroke-linejoin="round" stroke-width="2" d="M4 12h16M14 6l6 6-6 6"></path>
  </symbol>
  <symbol xmlns="http://www.w3.org/2000/svg" fill="none" viewBox="0 0 9 9" id="TechSkillssQuar">
    <rect width="8" height="8" fill="#F0F0F0" rx="2" transform="scale(-1 1) rotate(-2 6.304 248.032)"></rect>
  </symbol>
  <symbol xmlns="http://www.w3.org/2000/svg" fill="none" viewBox="0 0 24 24" id="WorkTogetherLocation">
    <path stroke="#14C57C" stroke-linecap="round" stroke-linejoin="round" d="M15 10.5a3 3 0 1 1-6 0 3 3 0 0 1 6 0v0Z"></path>
    <path stroke="#14C57C" stroke-linecap="round" stroke-linejoin="round" d="M19.5 10.5c0 7.142-7.5 11.25-7.5 11.25S4.5 17.642 4.5 10.5a7.5 7.5 0 0 1 15 0v0Z"></path>
  </symbol>
  <symbol xmlns="http://www.w3.org/2000/svg" fill="none" viewBox="0 0 22 16" id="WorkTogetherMail">
    <path stroke="#14C57C" stroke-linecap="round" stroke-linejoin="round" d="M20.75 2.75v10.5a2.25 2.25 0 0 1-2.25 2.25h-15a2.25 2.25 0 0 1-2.25-2.25V2.75m19.5 0A2.25 2.25 0 0 0 18.5.5h-15a2.25 2.25 0 0 0-2.25 2.25m19.5 0v.243a2.25 2.25 0 0 1-1.07 1.916l-7.5 4.615a2.25 2.25 0 0 1-2.36 0L2.32 4.91a2.25 2.25 0 0 1-1.07-1.916V2.75"></path>
  </symbol>
  <symbol xmlns="http://www.w3.org/2000/svg" fill="none" viewBox="0 0 22 22" id="WorkTogetherTell">
    <path stroke="#14C57C" stroke-linecap="round" stroke-linejoin="round" d="M1.25 5.75c0 8.284 6.716 15 15 15h2.25a2.25 2.25 0 0 0 2.25-2.25v-1.372c0-.516-.351-.966-.852-1.091l-4.423-1.106c-.44-.11-.902.055-1.173.417l-.97 1.293c-.282.376-.769.542-1.21.38a12.035 12.035 0 0 1-7.143-7.143c-.162-.441.004-.928.38-1.21l1.293-.97c.363-.271.527-.734.417-1.173L5.963 2.102a1.125 1.125 0 0 0-1.091-.852H3.5A2.25 2.25 0 0 0 1.25 3.5v2.25Z"></path>
  </symbol>
<symbol id="icon-arrow-right" viewBox="0 0 32 32">
<path stroke-linejoin="round" stroke-linecap="round" stroke-miterlimit="4" stroke-width="2.6667" d="M5.333 16h21.333M18.667 8l8 8-8 8"></path>
</symbol>
<symbol id="communication" viewBox="0 0 32 32">
<path fill="none" stroke="#00b068" stroke-linecap="round" stroke-linejoin="round" stroke-width="2.667" d="M17.093 23.867c.533.08 1.08.133 1.64.133 1.333 0 2.6-.253 3.787-.693.253-.093.373-.133.48-.16.093-.013.16-.027.267-.027.093 0 .213.013.427.053l4.253.613c.467.08.707.107.88.027a.58.58 0 0 0 .333-.333c.08-.16.053-.4 0-.88l-.547-4.36c-.027-.213-.04-.32-.027-.413 0-.093 0-.16.027-.267.027-.093.067-.213.16-.453.453-1.173.693-2.453.693-3.773 0-5.893-4.8-10.667-10.733-10.667S8 7.44 8 13.334c0 .547.04 1.093.12 1.627M17.333 22c0-4.053-3.213-7.333-7.16-7.333-3.96 0-7.16 3.28-7.16 7.333 0 .813.133 1.587.36 2.32.107.307.16.467.173.573s.027.173.013.28c0 .107-.027.227-.08.467l-.813 3.693 3.987-.547c.213-.04.333-.053.427-.053s.147.013.253.027c.093.027.227.067.507.173.733.253 1.507.4 2.333.4 3.947 0 7.16-3.293 7.16-7.333z" style="stroke:var(--color1, #00b068)"/>
</symbol>
<symbol id="art" viewBox="0 0 32 32">
<path fill="none" stroke="#00b068" stroke-linecap="round" stroke-linejoin="round" stroke-width="2.667" d="M12 14.96 17.027 20" style="stroke:var(--color1, #00b068)"/>
<path fill="none" stroke="#00b068" stroke-linejoin="round" stroke-width="2.667" d="M2.667 29.333c1.36-2.667-.467-6.147 1.36-7.973s4.773-1.827 6.6 0 1.827 4.773 0 6.6-5.293 1.373-7.96 1.373zM23.92 3.92a2.935 2.935 0 0 1 4.147 4.147l-12.173 13.16c-.64.68-.947 1.013-1.28 1.213-.813.48-1.8.493-2.627.053-.347-.187-.667-.507-1.32-1.16C10 20.666 9.68 20.346 9.494 20a2.674 2.674 0 0 1 .053-2.627c.2-.333.533-.653 1.213-1.28L23.92 3.92z" style="stroke:var(--color1, #00b068)"/>
</symbol>
<symbol id="urgent-execution" viewBox="0 0 32 32">
<path fill="none" stroke="#00b068" stroke-linejoin="round" stroke-width="2.667" d="M24.213 2.667c.613 0 1.12.493 1.12 1.107 0 3.56-1.413 6.96-3.933 9.48l-1.627 1.627c-.16.16-.24.24-.293.32-.36.467-.36 1.12 0 1.587.053.08.133.16.293.32l1.627 1.627a13.391 13.391 0 0 1 3.933 9.48c0 .613-.507 1.12-1.12 1.12H7.773a1.116 1.116 0 0 1-1.107-1.12c0-3.56 1.4-6.96 3.92-9.48l1.627-1.627c.16-.16.24-.24.293-.32.36-.467.36-1.12 0-1.587-.053-.08-.133-.16-.293-.32l-1.627-1.627a13.379 13.379 0 0 1-3.92-9.48c0-.613.493-1.107 1.107-1.107h16.44z" style="stroke:var(--color1, #00b068)"/>
</symbol>
<symbol id="expertise" viewBox="0 0 32 32">
<path fill="none" stroke="#00b068" stroke-linecap="round" stroke-linejoin="round" stroke-width="2.667" d="M5.333 28c0-1.867 0-2.8.227-3.56a5.365 5.365 0 0 1 3.547-3.547c.76-.227 1.693-.227 3.56-.227h6.667c1.853 0 2.787 0 3.547.227a5.365 5.365 0 0 1 3.547 3.547c.24.76.24 1.693.24 3.56" style="stroke:var(--color1, #00b068)"/>
<path fill="none" stroke="#00b068" stroke-linejoin="round" stroke-width="2.667" d="M16 16a6 6 0 0 1-6-6c0-3.32 2.68-6 6-6a6 6 0 0 1 6 6c0 3.307-2.693 6-6 6z" style="stroke:var(--color1, #00b068)"/>
</symbol>
<svg id="icon-mail" width="24" height="24" fill="none">
  <path stroke="#00B068" stroke-linecap="round" stroke-linejoin="round" d="M21.75 6.75v10.5a2.25 2.25 0 0 1-2.25 2.25h-15a2.25 2.25 0 0 1-2.25-2.25V6.75m19.5 0A2.25 2.25 0 0 0 19.5 4.5h-15a2.25 2.25 0 0 0-2.25 2.25m19.5 0v.243a2.25 2.25 0 0 1-1.07 1.916l-7.5 4.615a2.25 2.25 0 0 1-2.36 0L3.32 8.91a2.25 2.25 0 0 1-1.07-1.916V6.75"/>
</svg>
<svg id="icon-phone" width="24" height="24" fill="none">
  <path stroke="#00B068" stroke-linecap="round" stroke-linejoin="round" d="M2.25 6.75c0 8.284 6.716 15 15 15h2.25a2.25 2.25 0 0 0 2.25-2.25v-1.372c0-.516-.351-.966-.852-1.091l-4.423-1.106c-.44-.11-.902.055-1.173.417l-.97 1.293c-.282.376-.769.542-1.21.38a12.035 12.035 0 0 1-7.143-7.143c-.162-.441.004-.928.38-1.21l1.293-.97c.363-.271.527-.734.417-1.173L6.963 3.102a1.125 1.125 0 0 0-1.091-.852H4.5A2.25 2.25 0 0 0 2.25 4.5v2.25Z"/>
</svg>
<svg id="icon-location" width="24" height="24" fill="none">
  <path stroke="#00B068" stroke-linecap="round" stroke-linejoin="round" d="M15 10.5a3 3 0 1 1-6 0 3 3 0 0 1 6 0v0Z"/>
  <path stroke="#00B068" stroke-linecap="round" stroke-linejoin="round" d="M19.5 10.5c0 7.142-7.5 11.25-7.5 11.25S4.5 17.642 4.5 10.5a7.5 7.5 0 0 1 15 0v0Z"/>
</svg>
<symbol id="icon-circle-down" viewBox="0 0 32 32">
 <path d="M32 16c0-8.837-7.163-16-16-16S0 7.163 0 16s7.163 16 16 16 16-7.163 16-16zM3 16C3 8.82 8.82 3 16 3s13 5.82 13 13-5.82 13-13 13S3 23.18 3 16z"/>
<path d="m9.914 11.086-2.829 2.829 8.914 8.914 8.914-8.914-2.828-2.828-6.086 6.086z"/>
</symbol>
<svg xmlns="http://www.w3.org/2000/svg" width="30" height="16" fill="none" id="arrow">
  <path fill="#00B068" d="M1 7a1 1 0 0 0 0 2V7Zm28.707 1.707a1 1 0 0 0 0-1.414L23.343.929a1 1 0 1 0-1.414 1.414L27.586 8l-5.657 5.657a1 1 0 0 0 1.414 1.414l6.364-6.364ZM1 9h28V7H1v2Z"/>
</svg>
<svg xmlns="http://www.w3.org/2000/svg" width="16" height="16" fill="none" id="success-mark">
  <path fill="#00B068" d="M8 1a7 7 0 1 1 0 14A7 7 0 0 1 8 1Zm-.872 8.381L5.573 7.825a.6.6 0 1 0-.849.849l1.98 1.98a.598.598 0 0 0 .849 0l4.1-4.101a.6.6 0 1 0-.848-.849L7.128 9.381Z"/>
</svg>
</defs>
</svg>