<svg width="0" height="0" class="hidden">
  <symbol fill="none" xmlns="http://www.w3.org/2000/svg" viewBox="0 0 22 23" id="BenefitsArt">
    <path d="M1 20.9972C3 20.9972 5.60801 21.339 6.97485 19.9721C8.34168 18.6053 8.34168 16.3892 6.97485 15.0224C5.60801 13.6555 3.39194 13.6555 2.0251 15.0224C0.658265 16.3892 2.0251 18.9972 1 20.9972Z" stroke="#14C57C" stroke-width="2" stroke-linecap="round" stroke-linejoin="round"></path>
    <path d="M6.99995 14.9972C6.50853 14.5058 6.26283 14.2601 6.12391 14.0028C5.79079 13.3858 5.80514 12.6394 6.16173 12.0356C6.31043 11.7838 6.5654 11.5477 7.07534 11.0756L16.9434 1.93848C17.8126 1.1337 19.1624 1.15965 19.9999 1.99724C20.8375 2.83483 20.8635 4.18462 20.0587 5.05378L10.9216 14.9219C10.4494 15.4318 10.2134 15.6868 9.96157 15.8355C9.35781 16.192 8.6114 16.2064 7.99438 15.8733C7.73707 15.7344 7.49136 15.4887 6.99995 14.9972Z" stroke="#14C57C" stroke-width="2" stroke-linecap="round" stroke-linejoin="round"></path>
  </symbol>
  <symbol fill="none" xmlns="http://www.w3.org/2000/svg" viewBox="0 0 23 22" id="BenefitsCom">
    <path d="M5.09436 10.2288C5.03221 9.82823 4.99996 9.41786 4.99996 9C4.99996 4.58172 8.60525 1 13.0526 1C17.4999 1 21.1052 4.58172 21.1052 9C21.1052 9.99807 20.9213 10.9535 20.5852 11.8345C20.5154 12.0175 20.4804 12.109 20.4646 12.1804C20.4489 12.2512 20.4428 12.301 20.4411 12.3735C20.4394 12.4466 20.4493 12.5272 20.4692 12.6883L20.8717 15.9585C20.9153 16.3125 20.9371 16.4895 20.8782 16.6182C20.8266 16.731 20.735 16.8205 20.6211 16.8695C20.4911 16.9254 20.3146 16.8995 19.9617 16.8478L16.7765 16.3809C16.6101 16.3565 16.527 16.3443 16.4512 16.3448C16.3763 16.3452 16.3245 16.3507 16.2511 16.3661C16.177 16.3817 16.0823 16.4172 15.893 16.4881C15.0097 16.819 14.0524 17 13.0526 17C12.6344 17 12.2237 16.9683 11.8227 16.9073M6.63158 21C9.59648 21 12 18.5376 12 15.5C12 12.4624 9.59648 10 6.63158 10C3.66668 10 1.26316 12.4624 1.26316 15.5C1.26316 16.1106 1.36028 16.6979 1.53955 17.2467C1.61533 17.4787 1.65322 17.5947 1.66566 17.6739C1.67864 17.7567 1.68091 17.8031 1.67608 17.8867C1.67145 17.9668 1.65141 18.0573 1.61134 18.2383L1 21L3.9948 20.591C4.15827 20.5687 4.24 20.5575 4.31137 20.558C4.38652 20.5585 4.42641 20.5626 4.50011 20.5773C4.5701 20.5912 4.67416 20.6279 4.88227 20.7014C5.43059 20.8949 6.01911 21 6.63158 21Z" stroke="#14C57C" stroke-width="2" stroke-linecap="round" stroke-linejoin="round"></path>
  </symbol>
  <symbol fill="none" xmlns="http://www.w3.org/2000/svg" viewBox="0 0 24 24" id="BenefitsExpert">
    <path d="M20 21C20 19.6044 20 18.9067 19.8278 18.3389C19.44 17.0605 18.4395 16.06 17.1611 15.6722C16.5933 15.5 15.8956 15.5 14.5 15.5H9.5C8.10444 15.5 7.40665 15.5 6.83886 15.6722C5.56045 16.06 4.56004 17.0605 4.17224 18.3389C4 18.9067 4 19.6044 4 21" stroke="#14C57C" stroke-width="2" stroke-linecap="round" stroke-linejoin="round"></path>
    <path d="M12 12C14.4853 12 16.5 9.98528 16.5 7.5C16.5 5.01472 14.4853 3 12 3C9.51472 3 7.5 5.01472 7.5 7.5C7.5 9.98528 9.51472 12 12 12Z" stroke="#14C57C" stroke-width="2" stroke-linecap="round" stroke-linejoin="round"></path>
  </symbol>
  <symbol fill="none" xmlns="http://www.w3.org/2000/svg" viewBox="0 0 16 22" id="BenefitsUrgent">
    <path d="M14.1626 1H1.83744C1.37494 1 1 1.37494 1 1.83744C1 4.50268 2.05876 7.05876 3.94337 8.94337L5.16256 10.1626C5.28363 10.2836 5.34417 10.3442 5.3875 10.4023C5.65188 10.7569 5.65188 11.2431 5.3875 11.5977C5.34417 11.6558 5.28363 11.7164 5.16256 11.8374L3.94337 13.0566C2.05876 14.9412 1 17.4973 1 20.1626C1 20.6251 1.37494 21 1.83744 21H14.1626C14.6251 21 15 20.6251 15 20.1626C15 17.4973 13.9412 14.9412 12.0566 13.0566L10.8374 11.8374C10.7164 11.7164 10.6558 11.6558 10.6125 11.5977C10.3481 11.2431 10.3481 10.7569 10.6125 10.4023C10.6558 10.3442 10.7164 10.2836 10.8374 10.1626L12.0566 8.94337C13.9412 7.05876 15 4.50268 15 1.83744C15 1.37494 14.6251 1 14.1626 1Z" stroke="#14C57C" stroke-width="2" stroke-linecap="round" stroke-linejoin="round"></path>
  </symbol>
  <symbol fill="none" xmlns="http://www.w3.org/2000/svg" viewBox="0 0 18 18" id="closeTheMenu">
    <path d="M17 1L1 17" stroke="#F0F0F0" stroke-width="2" stroke-linecap="round" stroke-linejoin="round"></path>
  </symbol>
  <symbol fill="none" xmlns="http://www.w3.org/2000/svg" viewBox="0 0 14 9" id="FAQVector">
    <path d="M13 1L7 7L1 1" stroke="#F0F0F0" stroke-width="2" stroke-linecap="round"></path>
  </symbol>
  <symbol fill="none" xmlns="http://www.w3.org/2000/svg" viewBox="0 0 22 16" id="HeaderburgerMenu">
    <path d="M0.333984 15.026V13.6927H21.6673V15.026H0.333984ZM0.333984 8.66599V7.33266H21.6673V8.66599H0.333984ZM0.333984 2.30599V0.972656H21.6673V2.30599H0.333984Z" fill="#F0F0F0"></path>
  </symbol>
  <symbol fill="none" xmlns="http://www.w3.org/2000/svg" viewBox="0 0 30 16" id="HeroarrowButton">
    <path d="M1 7C0.447715 7 -4.82823e-08 7.44772 0 8C4.82823e-08 8.55228 0.447715 9 1 9L1 7ZM29.7071 8.7071C30.0976 8.31658 30.0976 7.68341 29.7071 7.29289L23.3431 0.92893C22.9526 0.538406 22.3195 0.538406 21.9289 0.92893C21.5384 1.31945 21.5384 1.95262 21.9289 2.34314L27.5858 8L21.9289 13.6569C21.5384 14.0474 21.5384 14.6805 21.9289 15.0711C22.3195 15.4616 22.9526 15.4616 23.3431 15.0711L29.7071 8.7071ZM1 9L29 9L29 7L1 7L1 9Z" fill="#14C57C"></path>
  </symbol>
  <symbol fill="none" xmlns="http://www.w3.org/2000/svg" viewBox="0 0 14 14" id="LersWorkCheÑk">
    <path d="M7 0C8.85652 0 10.637 0.737498 11.9497 2.05025C13.2625 3.36301 14 5.14348 14 7C14 8.85652 13.2625 10.637 11.9497 11.9497C10.637 13.2625 8.85652 14 7 14C5.14348 14 3.36301 13.2625 2.05025 11.9497C0.737498 10.637 0 8.85652 0 7C0 5.14348 0.737498 3.36301 2.05025 2.05025C3.36301 0.737498 5.14348 0 7 0ZM6.128 8.381L4.573 6.825C4.51725 6.76925 4.45107 6.72503 4.37824 6.69486C4.3054 6.66469 4.22734 6.64917 4.1485 6.64917C4.06966 6.64917 3.9916 6.66469 3.91876 6.69486C3.84593 6.72503 3.77975 6.76925 3.724 6.825C3.61142 6.93758 3.54817 7.09028 3.54817 7.2495C3.54817 7.40872 3.61142 7.56142 3.724 7.674L5.704 9.654C5.75959 9.71003 5.82572 9.75449 5.89858 9.78484C5.97143 9.81518 6.04958 9.83081 6.1285 9.83081C6.20742 9.83081 6.28557 9.81518 6.35842 9.78484C6.43128 9.75449 6.49741 9.71003 6.553 9.654L10.653 5.553C10.7095 5.49748 10.7544 5.43133 10.7852 5.35836C10.816 5.28539 10.8321 5.20705 10.8324 5.12785C10.8328 5.04864 10.8175 4.97015 10.7874 4.8969C10.7573 4.82365 10.7129 4.75708 10.657 4.70104C10.601 4.645 10.5345 4.6006 10.4613 4.5704C10.388 4.54019 10.3096 4.52478 10.2304 4.52506C10.1512 4.52533 10.0728 4.54129 9.99979 4.572C9.92678 4.60271 9.86058 4.64757 9.805 4.704L6.128 8.381Z" fill="#14C57C"></path>
  </symbol>
  <symbol fill="none" xmlns="http://www.w3.org/2000/svg" viewBox="0 0 18 18" id="MyProjectVector">
    <path d="M1.75 16.25L16.25 1.75M16.25 1.75H2.75M16.25 1.75V15.25" stroke="#14C57C" stroke-width="2" stroke-linecap="round" stroke-linejoin="round"></path>
  </symbol>
  <symbol fill="none" xmlns="http://www.w3.org/2000/svg" viewBox="0 0 24 24" id="ReviewsLeft">
    <path d="M20 12H4.00001" stroke="#383A3D" stroke-width="2" stroke-linecap="round" stroke-linejoin="round"></path>
    <path d="M10 6L4 12L10 18" stroke="#383A3D" stroke-width="2" stroke-linecap="round" stroke-linejoin="round"></path>
  </symbol>
  <symbol fill="none" xmlns="http://www.w3.org/2000/svg" viewBox="0 0 24 24" id="ReviewsRight">
    <path d="M4 12H20" stroke="#F0F0F0" stroke-width="2" stroke-linecap="round" stroke-linejoin="round"></path>
    <path d="M14 6L20 12L14 18" stroke="#F0F0F0" stroke-width="2" stroke-linecap="round" stroke-linejoin="round"></path>
  </symbol>
  <symbol fill="none" xmlns="http://www.w3.org/2000/svg" viewBox="0 0 9 9" id="TechSkillssQuar">
    <rect width="8" height="8" rx="2" transform="matrix(-0.999391 -0.0348994 -0.0348994 0.999391 8.65234 0.371094)" fill="#F0F0F0"></rect>
  </symbol>
  <symbol fill="none" xmlns="http://www.w3.org/2000/svg" viewBox="0 0 24 24" id="WorkTogetherLocation">
    <path d="M15 10.5C15 11.2956 14.6839 12.0587 14.1213 12.6213C13.5587 13.1839 12.7956 13.5 12 13.5C11.2044 13.5 10.4413 13.1839 9.87868 12.6213C9.31607 12.0587 9 11.2956 9 10.5C9 9.70435 9.31607 8.94129 9.87868 8.37868C10.4413 7.81607 11.2044 7.5 12 7.5C12.7956 7.5 13.5587 7.81607 14.1213 8.37868C14.6839 8.94129 15 9.70435 15 10.5V10.5Z" stroke="#14C57C" stroke-linecap="round" stroke-linejoin="round"></path>
    <path d="M19.5 10.5C19.5 17.642 12 21.75 12 21.75C12 21.75 4.5 17.642 4.5 10.5C4.5 8.51088 5.29018 6.60322 6.6967 5.1967C8.10322 3.79018 10.0109 3 12 3C13.9891 3 15.8968 3.79018 17.3033 5.1967C18.7098 6.60322 19.5 8.51088 19.5 10.5V10.5Z" stroke="#14C57C" stroke-linecap="round" stroke-linejoin="round"></path>
  </symbol>
  <symbol fill="none" xmlns="http://www.w3.org/2000/svg" viewBox="0 0 22 16" id="WorkTogetherMail">
    <path d="M20.75 2.75V13.25C20.75 13.8467 20.5129 14.419 20.091 14.841C19.669 15.2629 19.0967 15.5 18.5 15.5H3.5C2.90326 15.5 2.33097 15.2629 1.90901 14.841C1.48705 14.419 1.25 13.8467 1.25 13.25V2.75M20.75 2.75C20.75 2.15326 20.5129 1.58097 20.091 1.15901C19.669 0.737053 19.0967 0.5 18.5 0.5H3.5C2.90326 0.5 2.33097 0.737053 1.90901 1.15901C1.48705 1.58097 1.25 2.15326 1.25 2.75M20.75 2.75V2.993C20.75 3.37715 20.6517 3.75491 20.4644 4.0903C20.2771 4.42569 20.0071 4.70754 19.68 4.909L12.18 9.524C11.8252 9.74253 11.4167 9.85825 11 9.85825C10.5833 9.85825 10.1748 9.74253 9.82 9.524L2.32 4.91C1.99292 4.70854 1.72287 4.42669 1.53557 4.0913C1.34827 3.75591 1.24996 3.37815 1.25 2.994V2.75" stroke="#14C57C" stroke-linecap="round" stroke-linejoin="round"></path>
  </symbol>
  <symbol fill="none" xmlns="http://www.w3.org/2000/svg" viewBox="0 0 22 22" id="WorkTogetherTell">
    <path d="M1.25 5.75C1.25 14.034 7.966 20.75 16.25 20.75H18.5C19.0967 20.75 19.669 20.5129 20.091 20.091C20.5129 19.669 20.75 19.0967 20.75 18.5V17.128C20.75 16.612 20.399 16.162 19.898 16.037L15.475 14.931C15.035 14.821 14.573 14.986 14.302 15.348L13.332 16.641C13.05 17.017 12.563 17.183 12.122 17.021C10.4849 16.4191 8.99815 15.4686 7.76478 14.2352C6.53141 13.0018 5.58087 11.5151 4.979 9.878C4.817 9.437 4.983 8.95 5.359 8.668L6.652 7.698C7.015 7.427 7.179 6.964 7.069 6.525L5.963 2.102C5.90214 1.85869 5.76172 1.6427 5.56405 1.48834C5.36638 1.33397 5.1228 1.25008 4.872 1.25H3.5C2.90326 1.25 2.33097 1.48705 1.90901 1.90901C1.48705 2.33097 1.25 2.90326 1.25 3.5V5.75Z" stroke="#14C57C" stroke-linecap="round" stroke-linejoin="round"></path>
  </symbol>
</svg>